SplineFontDB: 3.0
FontName: Experiment-Latin
FullName: Experiment-Latin
FamilyName: Experiment-Latin
Weight: Regular
Copyright: Copyright (c) 2015, Pathum Egodawatta
UComments: "2015-9-29: Created with FontForge (http://fontforge.org)"
Version: 0.001
ItalicAngle: 0
UnderlinePosition: 100
UnderlineWidth: 49
Ascent: 1000
Descent: 0
InvalidEm: 0
LayerCount: 5
Layer: 0 0 "Back" 1
Layer: 1 0 "Fore" 0
Layer: 2 0 "Back 2" 1
Layer: 3 0 "alt" 1
Layer: 4 0 "black" 1
PreferredKerning: 4
XUID: [1021 779 -1439063335 14876943]
FSType: 0
OS2Version: 0
OS2_WeightWidthSlopeOnly: 0
OS2_UseTypoMetrics: 1
CreationTime: 1443542790
ModificationTime: 1455464955
PfmFamily: 17
TTFWeight: 400
TTFWidth: 5
LineGap: 122
VLineGap: 0
OS2TypoAscent: 129
OS2TypoAOffset: 1
OS2TypoDescent: 0
OS2TypoDOffset: 1
OS2TypoLinegap: 122
OS2WinAscent: 129
OS2WinAOffset: 1
OS2WinDescent: -161
OS2WinDOffset: 1
HheadAscent: 29
HheadAOffset: 1
HheadDescent: 183
HheadDOffset: 1
OS2CapHeight: 0
OS2XHeight: 0
OS2Vendor: 'PfEd'
MarkAttachClasses: 1
DEI: 91125
LangName: 1033
Encoding: iso8859-14
Compacted: 1
UnicodeInterp: none
NameList: Adobe Glyph List
DisplaySize: -128
AntiAlias: 1
FitToEm: 1
WinInfo: 0 11 6
BeginPrivate: 0
EndPrivate
Grid
-1000 822.174682617 m 0
 2000 822.174682617 l 1024
-1000 801 m 0
 2000 801 l 1024
-1000 62 m 0
 2000 62 l 1024
2000 766 m 1024
-1000 1143 m 0
 2000 1143 l 1024
665 1500 m 0
 665 -500 l 1024
149 1500 m 0
 149 -500 l 1024
-1000 499 m 0
 2000 499 l 1024
-1000 612 m 0
 2000 612 l 1024
EndSplineSet
AnchorClass2: "thn_ubufibi" "" 
BeginChars: 285 150

StartChar: a
Encoding: 97 97 1
AltUni2: 0000aa.ffffffff.0
GlifName: uni0061
Width: 626
VWidth: 153
Flags: HW
LayerCount: 5
Back
SplineSet
448 113 m 1
 448 113 387.673828125 -13 238 -13 c 0
 127.016601562 -13 55 32 55 125 c 0
 55 226 124.645507812 299.19140625 280 334 c 0
 371.66015625 354.537109375 446 346 446 346 c 1
 446 259 l 1
 446 259 382.010742188 298.114257812 305 287 c 0
 227.944335938 275.87890625 183.048828125 214.778320312 181 167 c 0
 178.264648438 103.212890625 211.5625 62.1572265625 279 58 c 0
 351.994140625 53.5 414 117.8125 420 159 c 1
 448 113 l 1
417 457 m 0
 396 546 311.684570312 555.455078125 287 552 c 0
 228.329101562 543.787109375 195.434570312 505.999023438 164 473 c 1
 220.0078125 557 l 1
 198.530273438 511.861328125 181.614257812 460.471679688 176 392 c 1
 88.1396484375 383 l 1
 81.9345703125 450.1796875 85 539 85 539 c 1
 134 566 240.01953125 610.842773438 339 611.013671875 c 0
 474.748046875 611.248046875 529.344726562 574.502929688 532 443 c 0
 533.576171875 364.958984375 517 166 534 95 c 0
 543 57 563 38 605 43 c 1
 616 4 l 1
 594.807617188 -4.4453125 539.655273438 -34.1240234375 482 -16 c 0
 437.524414062 -2.0185546875 428.541015625 36.7685546875 423 96 c 1
 413 110 l 1
 425 199 430.706054688 398.912109375 417 457 c 0
EndSplineSet
Fore
SplineSet
448 119 m 1
 448 119 388 -13 238 -13 c 0
 137 -13 55 32 55 125 c 0
 55 226 125 296 280 331 c 0
 372 352 446 356 446 356 c 1
 446 273 l 1
 446 273 382 299 305 288 c 0
 228 277 183 218 181 160 c 0
 179 96 217 65 274 61 c 0
 347 56 414 118 420 159 c 1
 448 119 l 1
414 457 m 0
 393 546 332 561 287 553 c 0
 229 542 205 507 174 474 c 1
 230 557 l 1
 209 512 192 469 186 401 c 1
 98 392 l 1
 92 459 95 539 95 539 c 1
 144 566 250 611 349 611 c 0
 485 611 529 575 532 443 c 0
 534 365 517 172 534 101 c 0
 543 63 563 44 605 49 c 1
 616 10 l 1
 595 2 540 -28 482 -10 c 0
 438 4 429 43 423 102 c 1
 413 116 l 1
 425 205 428 399 414 457 c 0
EndSplineSet
Layer: 2
SplineSet
428 113 m 1
 428 113 387.673828125 -13 238 -13 c 0
 127.016601562 -13 55 32 55 125 c 0
 55 226 124.645507812 299.19140625 280 334 c 0
 371.66015625 354.537109375 426 346 426 346 c 1
 426 269 l 1
 426 269 372.010742188 298.114257812 305 287 c 0
 228.1953125 274.26171875 193.981445312 214.729492188 191 167 c 0
 188.264648438 123.212890625 211.5625 62.1572265625 279 58 c 0
 351.994140625 53.5 394 117.8125 400 159 c 1
 428 113 l 1
397 457 m 0
 376 546 321.684570312 555.455078125 297 552 c 0
 238.329101562 543.787109375 205.434570312 505.999023438 174 473 c 1
 230.0078125 557 l 1
 208.530273438 511.861328125 191.614257812 460.471679688 186 392 c 1
 88.1396484375 383 l 1
 81.9345703125 450.1796875 85 539 85 539 c 1
 134 566 250.01953125 610.842773438 349 611.013671875 c 0
 484.748046875 611.248046875 529.344726562 574.502929688 532 443 c 0
 533.576171875 364.958984375 517 175 534 104 c 0
 543 66 563 47 605 52 c 1
 616 4 l 1
 594.807617188 -4.4453125 519.655273438 -34.1240234375 462 -16 c 0
 417.524414062 -2.0185546875 408.541015625 36.7685546875 403 96 c 1
 393 110 l 1
 405 199 410.706054688 398.912109375 397 457 c 0
EndSplineSet
Layer: 3
Layer: 4
SplineSet
418 119 m 1
 418 119 377.673828125 -13 218 -13 c 0
 117.016601562 -13 45 32 45 125 c 0
 45 226 124.645507812 294.19140625 280 329 c 4
 371.66015625 349.537109375 401 352 401 352 c 1
 401 259 l 1
 401 259 372.010742188 301.114257812 305 291 c 4
 228.017578125 279.380859375 173.048828125 217.778320312 171 160 c 0
 168.737304688 96.1943359375 206.5625 65.1572265625 264 61 c 0
 336.942382812 55.720703125 384 117.8125 390 159 c 1
 418 119 l 1
384 457 m 0
 373 536 321.684570312 556.455078125 286 552 c 0
 227.213867188 544.661132812 205.434570312 506.999023438 174 474 c 1
 229.0078125 552 l 1
 207.530273438 506.861328125 191.614257812 469.471679688 186 401 c 1
 88.1396484375 392 l 1
 81.9345703125 459.1796875 85 539 85 539 c 1
 134 566 250.01953125 610.842773438 349 611.013671875 c 0
 484.748046875 611.248046875 529.344726562 574.502929688 532 443 c 0
 533.576171875 364.958984375 517 172 534 101 c 0
 543 63 563 44 605 49 c 1
 616 10 l 1
 594.807617188 1.5546875 539.655273438 -28.1240234375 482 -10 c 0
 437.524414062 3.9814453125 398.541015625 42.7685546875 393 102 c 1
 383 116 l 1
 395 205 392.230882565 397.887297942 384 457 c 0
EndSplineSet
Colour: ff0000
EndChar

StartChar: n
Encoding: 110 110 2
GlifName: uni006E_
Width: 807
VWidth: 79
Flags: HW
LayerCount: 5
Back
SplineSet
682.62890625 476.931640625 m 0
 689.381835938 397.946289062 681.903320312 113 677 0 c 1
 550 0 l 1
 574.154296875 113.708984375 581.047851562 319.502929688 570.803710938 417.126953125 c 0
 562.877929688 492.657226562 509.4296875 529.543945312 427 513 c 0
 345.936523438 496.73046875 281 417 281 417 c 1
 256 454 l 1
 294.055664062 514.724609375 415.8984375 606.36328125 520 611 c 0
 605.555664062 614.810546875 673.96484375 578.276367188 682.62890625 476.931640625 c 0
57 62 m 1
 133 63 165 72 169 130 c 1
 284 143 l 1
 274.751953125 47.67578125 341.915039062 46.7607421875 368 48 c 1
 378 0 l 1
 65 0 l 1
 57 62 l 1
454 58 m 1
 530 54 565 92 569 140 c 1
 682 139 l 1
 679 49 753 49 772 50 c 1
 782 0 l 1
 464 0 l 1
 454 58 l 1
54 596 m 1
 158 592 288 608 288 608 c 1
 288 608 271 496 265 470 c 1
 265 437 288 478 288 478 c 1
 282 338 293 181 275 0 c 1
 160 0 l 1
 175 200 181 397 174 459 c 0
 169 504 143 526 61 528 c 1
 54 596 l 1
EndSplineSet
Fore
SplineSet
675 481 m 4
 678 459 679 418 679 373 c 0
 679 254 671 82 667 0 c 1
 544 0 l 1
 562 79 571 202 571 303 c 0
 571 347 569 387 565 417 c 0
 556 480 514 513 455 513 c 4
 354 513 286 417 286 417 c 1
 261 454 l 1
 310 522 420 612 527 612 c 4
 603 612 661 575 675 481 c 4
52 62 m 1
 64 61 75 60 85 60 c 0
 140 60 171 81 174 130 c 1
 289 143 l 1
 289 139 289 135 289 132 c 0
 289 56 337 48 365 48 c 0
 368 48 371 48 373 48 c 1
 383 0 l 1
 60 0 l 1
 52 62 l 1
448 62 m 1
 452 62 470 59 484 59 c 0
 523 59 558 69 564 140 c 1
 673 139 l 1
 670 60 728 50 755 50 c 0
 758 50 760 50 762 50 c 1
 772 0 l 1
 458 0 l 1
 448 62 l 1
49 595 m 5
 64 594 80 594 97 594 c 4
 191 594 293 608 293 608 c 5
 293 608 276 496 270 470 c 5
 270 461 272 457 275 457 c 0
 282 457 293 478 293 478 c 5
 291 437 291 395 291 351 c 0
 291 327 291 304 291 279 c 0
 291 193 290 100 280 0 c 1
 165 0 l 1
 176 144 182 286 182 378 c 0
 182 414 181 442 179 459 c 4
 174 504 138 532 56 534 c 5
 49 595 l 5
EndSplineSet
Layer: 2
SplineSet
682.62890625 476.931640625 m 0
 688.779296875 397.897460938 681.903320312 113 677 0 c 1
 537 0 l 1
 561.154296875 113.708984375 568.047851562 319.502929688 557.803710938 417.126953125 c 0
 549.877929688 492.657226562 489.4296875 524.543945312 427 513 c 0
 345.698242188 497.966796875 281 417 281 417 c 1
 256 454 l 1
 284.055664062 514.724609375 410.8984375 608.36328125 515 613 c 0
 600.555664062 616.810546875 673.96484375 588.276367188 682.62890625 476.931640625 c 0
46 62 m 1
 122 63 154 79 158 137 c 1
 284 150 l 1
 274.751953125 54.67578125 341.915039062 53.7607421875 368 55 c 1
 378 0 l 1
 54 0 l 1
 46 62 l 1
454 65 m 1
 530 61 552 99 556 147 c 1
 682 146 l 1
 679 56 753 56 772 57 c 1
 782 0 l 1
 464 0 l 1
 454 65 l 1
43 596 m 1
 147 592 288 608 288 608 c 1
 288 608 271 496 265 470 c 1
 265 437 288 478 288 478 c 1
 282 338 293 181 275 0 c 1
 149 0 l 1
 164 200 170 397 163 459 c 0
 158 504 132 526 50 528 c 1
 43 596 l 1
EndSplineSet
Layer: 3
Layer: 4
EndChar

StartChar: d
Encoding: 100 100 3
GlifName: uni0064
Width: 726
VWidth: 79
Flags: HW
LayerCount: 5
Back
SplineSet
474 136 m 5
 483.962890625 270.504882812 485.654296875 529.09375 480.217773438 718.8828125 c 4
 475.115234375 762.853515625 445.05078125 766 367 766 c 5
 360 829 l 5
 443 827 618 850 618 850 c 5
 593 650 589 208 593 145 c 4
 474 136 l 5
183.008789062 270 m 0
 181.942382812 167.05078125 223.369140625 75.9541015625 302.008789062 68 c 0
 383.40625 59.7666015625 459.291992188 126.734375 480.008789062 181 c 1
 511.008789062 140 l 1
 479.107421875 66 392.895507812 -12.91015625 280.008789062 -13 c 0
 134.999023438 -13.115234375 50.162109375 69.8994140625 49.0087890625 231 c 0
 47.9912109375 373.197265625 131.116210938 550.759765625 334.008789062 596 c 0
 412.350585938 613.46875 494.008789062 604 534.008789062 589 c 1
 494.008789062 501 l 1
 494.008789062 501 422.584960938 557.939453125 332.008789062 539 c 0
 244.211914062 520.641601562 184.567382812 420.450195312 183.008789062 270 c 0
550.008789062 -15 m 0
 496.715820312 -3.58984375 484.340820312 66.84765625 484.008789062 99 c 0
 483.560546875 108.749023438 475.137695312 129.8046875 474.74609375 142 c 0
 591.008789062 162 l 0
 596.463867188 80.44140625 624.682617188 44.87109375 703.008789062 57 c 1
 716.008789062 13 l 1
 663.836914062 -12.54296875 608.147460938 -27.447265625 550.008789062 -15 c 0
EndSplineSet
Fore
SplineSet
183 270 m 0
 182 167 223 76 302 68 c 0
 383 60 459 127 480 181 c 1
 511 140 l 1
 479 66 393 -13 280 -13 c 0
 135 -13 50 70 49 231 c 0
 48 373 131 551 334 596 c 0
 412 613 494 604 534 589 c 1
 494 501 l 1
 494 501 423 558 332 539 c 0
 244 521 185 420 183 270 c 0
550 -15 m 4
 497 -4 484 67 484 99 c 4
 484 109 475 130 475 142 c 4
 489 246 483 583 477 707 c 4
 475 754 432 767 360 766 c 5
 355 830 l 5
 438 828 609 850 609 850 c 5
 577 682 587 219 591 162 c 4
 597 80 625 45 703 57 c 5
 716 13 l 5
 664 -13 608 -27 550 -15 c 4
EndSplineSet
Layer: 2
SplineSet
360.008789062 853 m 1
 443.008789062 851 618.008789062 873 618.008789062 873 c 1
 618.008789062 873 609.008789062 834 602.008789062 777 c 1
 602.008789062 773 597.008789062 748 597.008789062 744 c 1
 565.008789062 741 l 0
 470.008789062 718 l 0
 475.008789062 770 452.008789062 782 364.008789062 782 c 1
 360.008789062 853 l 1
530.008789062 -15 m 0
 477.807617188 0.6650390625 472.340820312 66.84765625 472.008789062 99 c 1
 471.560546875 108.749023438 463.137695312 129.8046875 462.74609375 142 c 1
 474.130859375 225.181640625 474.19140625 415.891601562 467.193359375 551 c 1
 467.129882812 560.46484375 477.078125 569.809570312 477.041992188 579 c 1
 476.98828125 593.064453125 466.971679688 626.76953125 467.008789062 640 c 0
 467.251953125 727.08203125 474.900390625 777.067382812 482.008789062 838 c 1
 608.008789062 848 l 1
 583.008789062 648 589.78125 230.20703125 594.008789062 167 c 0
 599.463867188 85.44140625 604.682617188 49.87109375 683.008789062 62 c 1
 696.008789062 13 l 1
 643.836914062 -12.54296875 588.147460938 -32.447265625 530.008789062 -15 c 0
183.008789062 290 m 0
 181.962890625 187.05078125 223.369140625 75.9541015625 302.008789062 68 c 0
 383.40625 59.7666015625 447.291992188 126.734375 468.008789062 181 c 1
 499.008789062 140 l 1
 467.107421875 66 392.895507812 -12.916015625 270.008789062 -13 c 0
 114.999023438 -13.10546875 42.162109375 79.8994140625 41.0087890625 241 c 0
 39.9912109375 383.197265625 131.116210938 552.759765625 334.008789062 598 c 0
 412.350585938 615.46875 482.008789062 606 522.008789062 591 c 1
 482.008789062 498 l 1
 482.008789062 498 420.006835938 552.794921875 332.008789062 538 c 0
 253.9921875 524.8828125 184.567382812 443.450195312 183.008789062 290 c 0
EndSplineSet
Layer: 3
Layer: 4
EndChar

StartChar: h
Encoding: 104 104 4
GlifName: uni0068
Width: 801
VWidth: 79
Flags: HW
LayerCount: 5
Back
SplineSet
651.62890625 476.931640625 m 0
 660.693359375 398.177734375 650.903320312 113 646 0 c 1
 519 0 l 1
 543.154296875 113.708984375 550.047851562 319.502929688 539.803710938 417.126953125 c 0
 531.877929688 492.657226562 478.4296875 529.543945312 396 513 c 0
 314.936523438 496.73046875 250 417 250 417 c 1
 225 454 l 1
 263.055664062 514.724609375 386.8984375 606.36328125 491 611 c 0
 576.555664062 614.810546875 639.96484375 578.276367188 651.62890625 476.931640625 c 0
28 852 m 1
 111 850 289 873 289 873 c 1
 289 873 280 841 273 784 c 5
 273 780 268 755 268 751 c 5
 237 748 l 4
 149 723 l 4
 150 785 123 789 35 789 c 5
 28 852 l 1
312 1 m 1
 115 0 l 1
 115 0 134 72 142 136 c 1
 154 298 154 663 144 848 c 1
 289 873 l 1
 264 673 260 208 264 145 c 0
 267 101 246 49 328 49 c 1
 312 1 l 1
30 61 m 1
 106 57 136 89 143 137 c 1
 264 146 l 1
 262 51 338 50 356 51 c 1
 366 0 l 1
 40 0 l 1
 30 61 l 1
428 61 m 1
 504 57 534 89 538 137 c 1
 650 154 l 1
 647 64 731 60 750 61 c 1
 760 0 l 1
 438 0 l 1
 428 61 l 1
EndSplineSet
Fore
SplineSet
40 61 m 1
 116 57 149 89 156 137 c 1
 274 146 l 1
 272 51 348 50 366 51 c 1
 376 0 l 1
 50 0 l 1
 40 61 l 1
435 58 m 1
 439 58 441 58 444 58 c 0
 513 58 544 94 548 140 c 1
 662 139 l 1
 659 49 732 49 751 50 c 1
 761 0 l 1
 443 0 l 1
 435 58 l 1
664 477 m 0
 675 399 661 113 656 0 c 1
 529 0 l 1
 546 79 556 202 556 303 c 0
 556 347 554 387 550 417 c 0
 539 493 485 526 406 509 c 0
 325 492 260 417 260 417 c 1
 235 448 l 1
 283 519 405 604 499 611 c 0
 589 617 649 578 664 477 c 0
322 1 m 1
 128 0 l 1
 128 0 147 72 155 136 c 0
 165 271 166 529 161 719 c 0
 156 763 126 766 48 766 c 1
 41 829 l 1
 124 827 298 850 298 850 c 1
 273 637 270 208 274 145 c 0
 277 101 256 49 338 49 c 1
 322 1 l 1
EndSplineSet
Layer: 2
SplineSet
651.62890625 476.931640625 m 0
 657.779296875 397.897460938 650.903320312 113 646 0 c 1
 506 0 l 1
 530.154296875 113.708984375 538.323242188 319.645507812 526.803710938 417.126953125 c 0
 517.877929688 492.657226562 459.4296875 524.543945312 396 513 c 4
 314.65625 498.1953125 250 421 250 421 c 5
 225 454 l 1
 253.055664062 514.724609375 381.885742188 608.666992188 486 613 c 0
 577.555664062 616.810546875 642.96484375 588.276367188 651.62890625 476.931640625 c 0
18 852 m 1
 101 850 289 873 289 873 c 1
 289 873 280 834 273 777 c 1
 273 773 268 748 268 744 c 1
 237 741 l 0
 139 716 l 0
 140 778 113 782 25 782 c 1
 18 852 l 1
312 1 m 1
 105 0 l 1
 105 0 124 79 132 143 c 1
 144 305 144 663 134 848 c 1
 289 873 l 1
 264 673 260 215 264 152 c 0
 267 108 246 56 328 56 c 1
 312 1 l 1
20 68 m 1
 96 64 126 96 133 144 c 1
 264 153 l 1
 262 58 338 57 356 58 c 1
 366 0 l 1
 30 0 l 1
 20 68 l 1
428 68 m 1
 504 64 521 96 525 144 c 1
 650 161 l 1
 647 71 731 67 750 68 c 1
 760 0 l 1
 438 0 l 1
 428 68 l 1
EndSplineSet
Layer: 3
Layer: 4
EndChar

StartChar: e
Encoding: 101 101 5
GlifName: uni0065
Width: 593
VWidth: 153
Flags: HW
LayerCount: 5
Back
SplineSet
120.786132812 346 m 5
 367.786132812 368 l 1
 430.786132812 368 l 1
 421.786132812 497 361.7734375 563.91015625 283.786132812 555 c 0
 239.935546875 549.990234375 152.072265625 510.348632812 170.786132812 319 c 0
 184.67578125 176.98046875 232.200195312 78.201171875 345.786132812 63 c 0
 449.982421875 49.0556640625 538.786132812 113 540.786132812 113 c 1
 569.786132812 77 l 0
 550.786132812 60 468.776367188 -14.271484375 341.786132812 -16 c 0
 194.78515625 -18.0009765625 51.1875 53.0205078125 40.7861328125 257 c 0
 28.10546875 505.689453125 185.861328125 605.030273438 302.786132812 609 c 0
 487.811523438 615.282226562 574.786132812 477 554.786132812 298 c 1
 144.786132812 298 l 1
 120.786132812 346 l 5
EndSplineSet
Fore
SplineSet
121 344 m 1
 378 367 l 1
 438 368 l 1
 428 507 353 565 294 559 c 0
 201 550 160 462 163 329 c 0
 165 228 186 78 324 53 c 0
 427 34 517 102 519 102 c 1
 543 68 l 0
 524 51 449 -19 322 -21 c 0
 195 -23 52 36 41 240 c 0
 28 479 171 599 298 609 c 0
 466 623 571 527 553 298 c 1
 151 296 l 1
 121 344 l 1
EndSplineSet
Layer: 2
SplineSet
120.786132812 346 m 5
 367.786132812 368 l 1
 430.786132812 368 l 1
 421.786132812 497 361.7734375 563.91015625 283.786132812 555 c 0
 239.935546875 549.990234375 152.072265625 510.348632812 170.786132812 319 c 0
 184.67578125 176.98046875 232.200195312 78.201171875 345.786132812 63 c 0
 449.982421875 49.0556640625 538.786132812 113 540.786132812 113 c 1
 569.786132812 77 l 0
 550.786132812 60 468.776367188 -14.271484375 341.786132812 -16 c 0
 194.78515625 -18.0009765625 51.1875 53.0205078125 40.7861328125 257 c 0
 28.10546875 505.689453125 185.861328125 605.030273438 302.786132812 609 c 0
 487.811523438 615.282226562 574.786132812 477 554.786132812 298 c 1
 144.786132812 298 l 1
 120.786132812 346 l 5
EndSplineSet
Layer: 3
Layer: 4
EndChar

StartChar: i
Encoding: 105 105 6
GlifName: uni0069
Width: 413
VWidth: 79
Flags: HW
LayerCount: 5
Back
SplineSet
120.1953125 788.1328125 m 0
 120.1953125 835.697265625 158.700195312 874.202148438 206.264648438 874.202148438 c 0
 253.830078125 874.202148438 292.334960938 835.697265625 292.334960938 788.1328125 c 0
 292.334960938 740.567382812 253.830078125 702.0625 206.264648438 702.0625 c 0
 158.700195312 702.0625 120.1953125 740.567382812 120.1953125 788.1328125 c 0
50 68 m 1
 116 64 148 86 152 144 c 1
 275 149 l 1
 273 54 335 60 363 61 c 1
 373 0 l 1
 57 0 l 1
 50 68 l 1
49 592 m 1
 132 590 289 603 289 603 c 1
 279.327148438 547.604492188 277.629882812 87.107421875 269 0 c 1
 143 0 l 1
 158 200 159 387 152 449 c 0
 147 494 127 524 55 524 c 1
 49 592 l 1
EndSplineSet
Fore
SplineSet
143 782 m 0
 143 824 177 852 218 852 c 0
 268 852 293 813 293 771 c 0
 293 729 259 701 218 701 c 0
 177 701 143 740 143 782 c 0
50 61 m 1
 116 57 164 79 168 137 c 1
 275 142 l 1
 273 47 335 53 363 54 c 1
 373 0 l 1
 57 0 l 1
 50 61 l 1
49 584 m 5
 132 582 289 595 289 595 c 5
 279 540 278 87 269 0 c 1
 159 0 l 1
 174 200 175 386 168 448 c 4
 163 493 127 523 55 523 c 5
 49 584 l 5
EndSplineSet
Layer: 2
SplineSet
120.1953125 788.1328125 m 0
 120.1953125 835.697265625 158.700195312 874.202148438 206.264648438 874.202148438 c 0
 253.830078125 874.202148438 292.334960938 835.697265625 292.334960938 788.1328125 c 0
 292.334960938 740.567382812 253.830078125 702.0625 206.264648438 702.0625 c 0
 158.700195312 702.0625 120.1953125 740.567382812 120.1953125 788.1328125 c 0
50 68 m 1
 116 64 148 86 152 144 c 1
 275 149 l 1
 273 54 335 60 363 61 c 1
 373 0 l 1
 57 0 l 1
 50 68 l 1
49 592 m 1
 132 590 289 603 289 603 c 1
 279.327148438 547.604492188 277.629882812 87.107421875 269 0 c 1
 143 0 l 1
 158 200 159 387 152 449 c 0
 147 494 127 524 55 524 c 1
 49 592 l 1
EndSplineSet
Layer: 3
Layer: 4
EndChar

StartChar: s
Encoding: 115 115 7
GlifName: uni0073
Width: 531
VWidth: 153
Flags: HW
LayerCount: 5
Back
SplineSet
243 47 m 0
 301.53125 46.4580078125 348.39453125 87.744140625 356 131.4140625 c 0
 379.359375 265.549804688 86.7275390625 249.123046875 64 412 c 0
 49.3701171875 516.848632812 145.05078125 608.756835938 302 606 c 0
 396.024414062 604.348632812 458 580 458 580 c 1
 462.323242188 542.447265625 460.184570312 471.194335938 455 437 c 1
 375 445 l 1
 373.559570312 482.333007812 358.795898438 542.666992188 338 591 c 1
 393 462 l 1
 379.317382812 478.264648438 357.96484375 550.783203125 274 551.381835938 c 0
 217.659179688 551.783203125 184.045898438 511.095703125 194 466 c 0
 219.3203125 351.291992188 459.510742188 368.948242188 476 184 c 0
 486.04296875 71.3583984375 379.010742188 -13.544921875 235 -14 c 0
 122.419921875 -14.35546875 39 18 39 18 c 1
 35.111328125 53.1884765625 36.8671875 115.701171875 46 176 c 1
 129 167 l 1
 131.750976562 119.7890625 140.740234375 75.5732421875 165 41 c 1
 124.46875 52.052734375 112.418945312 95.958984375 105 139 c 1
 137.305664062 104.682617188 156.556640625 47.80078125 243 47 c 0
EndSplineSet
Fore
SplineSet
253 36 m 4
 313 35 355 82 363 126 c 0
 386 260 98 249 74 412 c 0
 58 516 145 609 302 606 c 0
 396 604 458 580 458 580 c 1
 462 542 460 471 455 437 c 1
 375 445 l 1
 374 482 359 543 338 591 c 1
 393 462 l 1
 379 478 358 554 274 555 c 0
 218 555 174 512 184 466 c 0
 209 351 460 349 476 184 c 0
 487 71 389 -25 245 -25 c 4
 132 -25 49 7 49 7 c 5
 45 42 47 105 56 165 c 5
 139 156 l 5
 142 109 151 65 175 30 c 5
 134 41 122 85 115 128 c 5
 147 94 167 37 253 36 c 4
EndSplineSet
Layer: 2
SplineSet
243 47 m 0
 301.53125 46.4580078125 348.39453125 87.744140625 356 131.4140625 c 0
 379.359375 265.549804688 86.7275390625 249.123046875 64 412 c 0
 49.3701171875 516.848632812 145.05078125 608.756835938 302 606 c 0
 396.024414062 604.348632812 458 580 458 580 c 1
 462.323242188 542.447265625 460.184570312 471.194335938 455 437 c 1
 375 445 l 1
 373.559570312 482.333007812 358.795898438 542.666992188 338 591 c 1
 393 462 l 1
 379.317382812 478.264648438 357.96484375 550.783203125 274 551.381835938 c 0
 217.659179688 551.783203125 184.045898438 511.095703125 194 466 c 0
 219.3203125 351.291992188 459.510742188 368.948242188 476 184 c 0
 486.04296875 71.3583984375 379.010742188 -13.544921875 235 -14 c 0
 122.419921875 -14.35546875 39 18 39 18 c 1
 35.111328125 53.1884765625 36.8671875 115.701171875 46 176 c 1
 129 167 l 1
 131.750976562 119.7890625 140.740234375 75.5732421875 165 41 c 1
 124.46875 52.052734375 112.418945312 95.958984375 105 139 c 1
 137.305664062 104.682617188 156.556640625 47.80078125 243 47 c 0
EndSplineSet
Layer: 3
Layer: 4
EndChar

StartChar: o
Encoding: 111 111 8
AltUni2: 0000ba.ffffffff.0
GlifName: o
Width: 662
VWidth: 153
Flags: HW
LayerCount: 5
Back
SplineSet
376.670898438 611.631835938 m 4
 194.022460938 616.409179688 52.15234375 465.428710938 44.0185546875 255.5859375 c 0
 37.9921875 100.102539062 125.208007812 -9.572265625 313.635742188 -14.4541015625 c 0
 536.596679688 -20.23046875 625.932617188 146.333007812 631.072265625 322.662109375 c 0
 637.393554688 539.545898438 524.641601562 607.76171875 376.670898438 611.631835938 c 4
490.171875 297.67578125 m 0
 486.427734375 167.583007812 446.250976562 59.431640625 349.459960938 48.4140625 c 0
 235.208984375 35.4091796875 182.90625 186.602539062 187.434570312 318.36328125 c 0
 193.868164062 505.547851562 282.1015625 548.077148438 327.977539062 553.431640625 c 0
 413.30859375 563.390625 494.677734375 454.274414062 490.171875 297.67578125 c 0
EndSplineSet
Fore
SplineSet
362 615 m 4
 179 616 42 466 44 246 c 4
 45 90 121 -15 299 -18 c 4
 522 -22 611 148 616 324 c 4
 622 531 516 614 362 615 c 4
498 298 m 4
 494 168 441 55 344 44 c 4
 230 31 166 156 171 318 c 4
 176 505 267 552 313 556 c 4
 424 566 503 455 498 298 c 4
EndSplineSet
Layer: 2
SplineSet
376.670898438 611.631835938 m 4
 194.022460938 616.409179688 52.15234375 465.428710938 44.0185546875 255.5859375 c 0
 37.9921875 100.102539062 125.208007812 -9.572265625 313.635742188 -14.4541015625 c 0
 536.596679688 -20.23046875 625.932617188 146.333007812 631.072265625 322.662109375 c 0
 637.393554688 539.545898438 524.641601562 607.76171875 376.670898438 611.631835938 c 4
490.171875 297.67578125 m 0
 486.427734375 167.583007812 446.250976562 59.431640625 349.459960938 48.4140625 c 0
 235.208984375 35.4091796875 182.90625 186.602539062 187.434570312 318.36328125 c 0
 193.868164062 505.547851562 282.1015625 548.077148438 327.977539062 553.431640625 c 0
 413.30859375 563.390625 494.677734375 454.274414062 490.171875 297.67578125 c 0
EndSplineSet
Layer: 3
Layer: 4
EndChar

StartChar: b
Encoding: 98 98 9
GlifName: b
Width: 692
VWidth: 79
Flags: HW
LayerCount: 5
Back
SplineSet
0 819 m 5
 83 817 254 839 254 839 c 5
 254 839 245 800 238 743 c 5
 238 739 233 714 233 710 c 5
 216 707 l 4
 122 677 l 4
 127 729 88 758 0 758 c 5
 0 819 l 5
279 1 m 5
 116 24 l 5
 118.794921875 180.715820312 125.564453125 631.268554688 118 815 c 5
 253 834 l 5
 217.078125 546.623046875 219.814453125 183.802734375 227 45 c 5
 279 1 l 5
519 349 m 4
 519.874023438 485.951171875 448.341808951 535.290461064 386 534 c 4
 328.950355759 532.819085525 258.716796875 488.265625 223 404 c 5
 189 445 l 5
 236.901367188 558 342.11328125 612.911132812 427 613 c 4
 572.009765625 613.15234375 649 515 643 344 c 4
 636.958007812 171.802734375 553.734375 -10.203125 324 -12 c 4
 225.939453125 -12.7666015625 158 7 115 24 c 5
 185 152 l 5
 185 152 249.77734375 30.8427734375 367 52 c 4
 448.831054688 66.76953125 517.829196849 165.546265528 519 349 c 4
EndSplineSet
Fore
SplineSet
113 22 m 1
 126 127 133 572 115 707 c 0
 109 754 70 767 -2 766 c 1
 -7 830 l 1
 76 828 247 850 247 850 c 1
 215 682 225 219 229 162 c 0
 235 80 223 35 301 47 c 1
 314 3 l 1
 113 22 l 1
519 349 m 0
 520 486 448 535 386 534 c 0
 329 533 259 488 223 404 c 1
 189 445 l 1
 237 558 342 613 427 613 c 0
 572 613 649 515 643 344 c 0
 637 172 554 -10 324 -12 c 0
 226 -13 156 5 113 22 c 1
 185 152 l 1
 185 152 250 31 367 52 c 0
 449 67 518 166 519 349 c 0
EndSplineSet
Layer: 2
SplineSet
2 851 m 1
 85 849 260 871 260 871 c 1
 260 871 251 832 244 775 c 1
 244 771 239 746 239 742 c 1
 208 739 l 0
 114 702 l 0
 119 754 90 781 2 781 c 1
 2 851 l 1
285 1 m 1
 108 24 l 1
 100.794921875 180.715820312 103.564453125 663.268554688 125 847 c 1
 259 866 l 1
 223.078125 578.623046875 225.814453125 193.802734375 233 55 c 1
 285 1 l 1
504 338 m 0
 504.874023438 450.951171875 458.306640625 542.989257812 369 540 c 0
 321.951171875 538.42578125 259.716796875 495.265625 229 411 c 1
 190 474 l 1
 241.901367188 558 334.11328125 612.916992188 419 613 c 0
 575.009765625 613.15234375 656 508 650 337 c 0
 643.958007812 164.802734375 553.734375 -10.203125 324 -12 c 0
 225.939453125 -12.7666015625 150 7 107 24 c 1
 177 162 l 1
 177 162 229.8828125 52.3623046875 349 52 c 0
 424.831054688 51.76953125 502.580078125 154.548828125 504 338 c 0
EndSplineSet
Layer: 3
Layer: 4
EndChar

StartChar: r
Encoding: 114 114 10
GlifName: r
Width: 594
VWidth: 79
Flags: HW
LayerCount: 5
Back
SplineSet
461 429 m 1053
547.62890625 606.931640625 m 5,0,1
 560.979304676 545.140392989 555.783202328 486.432928999 547.3359375 427.185546875 c 5,11,12
 461 429 l 5,0,0
 453.53125 451.228515625 446.063476562 473.458007812 435 490.4765625 c 5,0,0
 306.106445312 489.979492188 258.503299742 424.487976481 246 397 c 5,15,-1
 241 444 l 5,16,17
 284.417257879 513.413357003 404.184570312 607.883789062 501 609.767578125 c 4,0,0
 529.2578125 610.317382812 547.62890625 606.931640625 547.62890625 606.931640625 c 5,0,1
52 63 m 5,22,23
 63.8515625 61.5966796875 74.8759765625 60.8740234375 85.05859375 60.8740234375 c 4,24,25
 140.174804688 60.8740234375 170.624023438 82.0439453125 174 131 c 5,26,-1
 288 150 l 5,27,28
 287.791992188 146.228515625 287.69140625 142.60546875 287.69140625 139.124023438 c 4,29,30
 287.69140625 62.9560546875 356.818359375 48.7841796875 404.6640625 48.7841796875 c 4,31,32
 407.716796875 48.7841796875 410.525390625 48.8828125 413 49 c 5,33,-1
 423 1 l 5,34,-1
 60 1 l 5,35,-1
 52 63 l 5,22,23
49 595 m 5,50,51
 64.4892578125 593.95703125 80.77734375 593.513671875 97.2822265625 593.513671875 c 4,52,53
 191.596679688 593.513671875 293 608 293 608 c 5,54,55
 293 608 276 486 270 460 c 5,56,57
 293 468 l 5,60,61
 290.176757812 402.124023438 286.036132812 348.6171875 286.036132812 279 c 4,64,65
 286.036132812 192.529296875 286.936523438 99.921875 300 0 c 5,66,-1
 165 0 l 5,67,68
 175.778320312 143.716796875 181.91015625 285.884765625 181.91015625 377.525390625 c 4,69,70
 181.91015625 413.413085938 180.969726562 441.552734375 179 459 c 4,71,72
 174 504 138 532 56 534 c 5,73,-1
 49 595 l 5,50,51
EndSplineSet
Fore
SplineSet
249 275 m 4
 215 320 l 4
 224 444 319 588 462 599 c 4
 540 605 563 589 563 589 c 5
 565 551 565 461 558 416 c 5
 498 422 l 5
 477 465 448 504 399 538 c 5
 520 475 l 5
 520 475 466 514 364 493 c 4
 297 479 251 426 249 275 c 4
461 429 m 1049
52 63 m 1
 64 62 75 61 85 61 c 0
 140 61 171 82 174 131 c 1
 288 150 l 1
 288 146 288 142 288 139 c 0
 288 63 357 49 405 49 c 0
 408 49 411 49 413 49 c 1
 423 1 l 1
 60 1 l 1
 52 63 l 1
49 595 m 1
 64 594 80 594 97 594 c 0
 191 594 293 608 293 608 c 1
 293 608 276 486 270 460 c 1
 293 468 l 1
 290 402 286 349 286 279 c 0
 286 193 287 100 300 0 c 1
 165 0 l 1
 176 144 182 286 182 378 c 0
 182 414 181 442 179 459 c 0
 174 504 138 532 56 534 c 1
 49 595 l 1
EndSplineSet
Layer: 2
Layer: 3
SplineSet
478 408 m 1053
577.62890625 596.931640625 m 5,0,1
 584.06640625 550.486328125 572 443 564.676757812 402 c 5,9,10
 478 408 l 5,0,0
 472.810546875 474.30078125 450.081054688 516.78515625 415.336914062 554 c 5,0,0
 512.3359375 487.185546875 l 5,11,12
 382.362304688 532.341796875 234.743164062 428.206054688 246 417 c 5,15,-1
 241 464 l 5,16,17
 302.587890625 535.41015625 417.267578125 606.356445312 502 608.061523438 c 4,0,0
 551.016601562 609.047851562 577.62890625 596.931640625 577.62890625 596.931640625 c 5,0,1
52 63 m 5,22,23
 63.8515625 61.5966796875 74.8759765625 60.8740234375 85.05859375 60.8740234375 c 4,24,25
 140.174804688 60.8740234375 170.624023438 82.0439453125 174 131 c 5,26,-1
 288 150 l 5,27,28
 287.791992188 146.228515625 287.69140625 142.60546875 287.69140625 139.124023438 c 4,29,30
 287.69140625 62.9560546875 356.818359375 48.7841796875 404.6640625 48.7841796875 c 4,31,32
 407.716796875 48.7841796875 410.525390625 48.8828125 413 49 c 5,33,-1
 423 1 l 5,34,-1
 60 1 l 5,35,-1
 52 63 l 5,22,23
49 595 m 5,50,51
 64.4892578125 593.95703125 80.77734375 593.513671875 97.2822265625 593.513671875 c 4,52,53
 191.596679688 593.513671875 293 608 293 608 c 5,54,55
 293 608 276 486 270 460 c 5,56,57
 293 468 l 5,60,61
 290.176757812 402.124023438 286.036132812 348.6171875 286.036132812 279 c 4,64,65
 286.036132812 192.529296875 286.936523438 99.921875 300 0 c 5,66,-1
 165 0 l 5,67,68
 175.778320312 143.716796875 181.91015625 285.884765625 181.91015625 377.525390625 c 4,69,70
 181.91015625 413.413085938 180.969726562 441.552734375 179 459 c 4,71,72
 174 504 138 532 56 534 c 5,73,-1
 49 595 l 5,50,51
EndSplineSet
Layer: 4
Colour: ff0000
EndChar

StartChar: period
Encoding: 46 46 11
GlifName: period
Width: 175
VWidth: 79
Flags: HW
LayerCount: 5
Back
Fore
SplineSet
15.5595703125 53.8076171875 m 4
 15.5595703125 92.599609375 46.947265625 118.4609375 84.7978515625 118.4609375 c 4
 130.956054688 118.4609375 154.03515625 82.4404296875 154.03515625 43.6474609375 c 4
 154.03515625 4.8544921875 122.647460938 -21.005859375 84.7978515625 -21.005859375 c 4
 46.947265625 -21.005859375 15.5595703125 15.0146484375 15.5595703125 53.8076171875 c 4
EndSplineSet
Layer: 2
Layer: 3
Layer: 4
EndChar

StartChar: t
Encoding: 116 116 12
GlifName: t
Width: 431
VWidth: 79
Flags: W
HStem: 500 79<203.243 323> 507 74<-9 90.2826> 589 20G<145.5 175>
VStem: 87 125<140 792> 120 92<614.425 767>
LayerCount: 5
Back
Fore
SplineSet
98 600 m 1x60
 120 601 133 608 158 609 c 1
 192 578 270 578 323 579 c 5
 341 500 l 1xa0
 164 507 l 1
 88 507 l 1
 98 600 l 1x60
-14 581 m 1x70
 20 583 74 589 96 600 c 1
 96 600 108 678 120 767 c 1x68
 212 792 l 1
 203 563 185 200 216 132 c 0
 245 70 313 54 381 95 c 1
 407 60 l 1
 386 36 315 -12 234 -13 c 0
 150 -14 83 42 87 140 c 0
 89 193 94 349 88 507 c 1
 -9 507 l 1
 -14 581 l 1x70
EndSplineSet
Layer: 2
Layer: 3
Layer: 4
EndChar

StartChar: p
Encoding: 112 112 13
GlifName: p
Width: 761
VWidth: 79
Flags: HW
LayerCount: 5
Back
Fore
SplineSet
43 -156 m 1
 55 -157 66 -158 76 -158 c 0
 131 -158 160 -150 163 -101 c 5
 282 -82 l 5
 282 -86 282 -90 282 -93 c 4
 282 -169 341 -170 389 -170 c 0
 392 -170 395 -170 397 -170 c 1
 407 -218 l 1
 51 -218 l 1
 43 -156 l 1
40 595 m 1
 55 594 71 594 88 594 c 0
 182 594 284 608 284 608 c 1
 284 608 267 506 261 480 c 1
 284 488 l 1
 281 422 277 349 277 279 c 0
 277 193 278 -117 291 -217 c 1
 156 -217 l 1
 167 -73 173 286 173 378 c 0
 173 414 172 442 170 459 c 0
 165 504 130 536 47 534 c 1
 40 595 l 1
578 331 m 0
 579 434 548 524 459 533 c 0
 378 541 302 474 281 420 c 1
 250 461 l 1
 282 535 378 614 491 614 c 0
 635 614 711 531 712 370 c 0
 713 228 630 50 427 5 c 0
 349 -12 267 -3 227 12 c 1
 267 100 l 1
 267 100 338 43 429 62 c 0
 517 80 576 181 578 331 c 0
EndSplineSet
Layer: 2
Layer: 3
Layer: 4
EndChar

StartChar: v
Encoding: 118 118 14
GlifName: v
Width: 681
VWidth: 79
Flags: HW
LayerCount: 5
Back
SplineSet
662 538 m 1
 592.022460938 535.735351562 597.107421875 508.028320312 576.810546875 455.861328125 c 0
 508 279 416.959960938 88.9033203125 379.661132812 8.6162109375 c 9
 255.399414062 -24.650390625 l 1
 216.270507812 86.927734375 183.459960938 225.581054688 103.497070312 462.43359375 c 1
 84.3037109375 526.984375 68.650390625 532.875976562 12 532 c 1
 -2 596 l 1
 112 590.78125 206 592.904296875 320 596 c 1
 334 542 l 1
 258 536 205 525 220 460 c 1
 219.7265625 459.962890625 l 1
 247.463867188 361.939453125 288.78125 252.842773438 313.678710938 158 c 1
 316.244140625 135.912109375 333 45 330.991210938 51 c 5
 360.858398438 122.987304688 438.057617188 302.979492188 501.733398438 468.791992188 c 1
 519.560546875 526.806640625 457.559570312 535.975585938 390 533 c 1
 381 596 l 1
 477.666992188 590.463867188 554.333007812 592.002929688 651 596 c 1
 662 538 l 1
EndSplineSet
Fore
SplineSet
676 538 m 5
 606 536 600 507 578 456 c 4
 502 279 413 76 376 -4 c 5
 347 -7 307 -16 273 -26 c 5
 234 86 183 225 103 462 c 5
 84 527 53 539 6 538 c 5
 -2 596 l 5
 112 591 206 593 320 596 c 5
 334 542 l 5
 258 536 210 525 225 460 c 5
 225 460 l 5
 253 362 284 292 309 197 c 5
 320 162 338 63 336 69 c 5
 370 141 458 353 492 459 c 5
 510 518 472 536 404 533 c 5
 395 596 l 5
 492 590 568 592 665 596 c 5
 676 538 l 5
EndSplineSet
Layer: 2
SplineSet
682 538 m 1
 612.022460938 535.735351562 597.107421875 508.028320312 576.810546875 455.861328125 c 0
 508 279 416.959960938 68.9033203125 379.661132812 -11.3837890625 c 9
 252.399414062 -14.650390625 l 1
 213.270507812 96.927734375 183.459960938 225.581054688 103.497070312 462.43359375 c 1
 84.3037109375 526.984375 48.650390625 532.875976562 -8 532 c 1
 -22 596 l 1
 92 590.78125 206 592.904296875 320 596 c 1
 334 542 l 1
 258 536 222 515 237 450 c 1
 236.7265625 449.962890625 l 1
 264.463867188 351.939453125 295.78125 252.842773438 320.678710938 158 c 1
 323.244140625 135.912109375 333 65 330.991210938 71 c 1
 360.858398438 142.987304688 428.057617188 302.979492188 491.733398438 468.791992188 c 1
 509.560546875 526.806640625 457.559570312 535.975585938 390 533 c 1
 381 596 l 1
 477.666992188 590.463867188 574.333007812 592.002929688 671 596 c 1
 682 538 l 1
EndSplineSet
Layer: 3
Layer: 4
EndChar

StartChar: m
Encoding: 109 109 15
GlifName: m
Width: 1177
VWidth: 79
Flags: HW
LayerCount: 5
Back
SplineSet
1052.62890625 476.931640625 m 0
 1058.77929688 397.897460938 1051.90332031 113 1047 0 c 1
 907 0 l 1
 931.154296875 113.708984375 938.047851562 319.502929688 927.803710938 417.126953125 c 0
 919.877929688 492.657226562 859.4296875 524.543945312 797 513 c 0
 715.698242188 497.966796875 661 437 661 437 c 1
 636 474 l 1
 674.055664062 524.724609375 780.8984375 608.36328125 885 613 c 0
 970.555664062 616.810546875 1043.96484375 588.276367188 1052.62890625 476.931640625 c 0
824 65 m 1
 900 61 922 99 926 147 c 1
 1052 146 l 1
 1049 56 1123 56 1142 57 c 1
 1152 0 l 1
 834 0 l 1
 824 65 l 1
662.62890625 476.931640625 m 0
 668.779296875 397.897460938 661.903320312 113 657 0 c 1
 517 0 l 1
 541.154296875 113.708984375 548.047851562 319.502929688 537.803710938 417.126953125 c 0
 529.877929688 492.657226562 473.4296875 524.543945312 411 513 c 0
 329.698242188 497.966796875 266 412 266 412 c 1
 241 449 l 1
 269.055664062 509.724609375 391.8984375 608.36328125 496 613 c 4
 581.555664062 616.810546875 653.96484375 588.276367188 662.62890625 476.931640625 c 0
41 62 m 1
 117 63 149 79 153 137 c 1
 279 150 l 1
 269.751953125 54.67578125 336.915039062 53.7607421875 363 55 c 1
 373 0 l 1
 49 0 l 1
 41 62 l 1
440 65 m 1
 516 61 532 99 536 147 c 1
 662 146 l 1
 659 56 733 56 752 57 c 1
 762 0 l 1
 450 0 l 1
 440 65 l 1
38 596 m 1
 142 592 283 608 283 608 c 1
 283 608 266 496 260 470 c 1
 260 437 283 478 283 478 c 1
 277 338 288 181 270 0 c 1
 144 0 l 1
 159 200 165 397 158 459 c 0
 153 504 127 526 45 528 c 1
 38 596 l 1
EndSplineSet
Fore
SplineSet
1038 477 m 0
 1049 399 1037 113 1032 0 c 1
 905 0 l 1
 929 114 936 319 926 417 c 0
 918 493 864 530 782 513 c 0
 701 497 636 417 636 417 c 1
 611 454 l 1
 649 515 771 605 875 611 c 0
 974 617 1023 578 1038 477 c 0
819 58 m 1
 895 54 920 92 924 140 c 1
 1037 139 l 1
 1034 49 1108 49 1127 50 c 1
 1137 0 l 1
 829 0 l 1
 819 58 l 1
652 477 m 0
 663 399 651 113 646 0 c 1
 519 0 l 1
 543 114 550 319 540 417 c 0
 532 493 478 530 396 513 c 0
 315 497 246 417 246 417 c 1
 221 454 l 1
 259 515 385 605 489 611 c 0
 588 617 637 578 652 477 c 0
52 62 m 1
 128 63 160 72 164 130 c 1
 279 143 l 1
 274 48 337 47 363 48 c 1
 373 0 l 1
 60 0 l 1
 52 62 l 1
443 58 m 1
 519 54 534 92 538 140 c 1
 651 139 l 1
 648 49 712 49 731 50 c 1
 741 0 l 1
 453 0 l 1
 443 58 l 1
49 596 m 1
 153 592 283 608 283 608 c 1
 283 608 266 496 260 470 c 1
 260 437 283 478 283 478 c 1
 277 338 288 181 270 0 c 1
 155 0 l 1
 170 200 176 397 169 459 c 0
 164 504 138 526 56 528 c 1
 49 596 l 1
EndSplineSet
Layer: 2
SplineSet
1052.62890625 476.931640625 m 0
 1058.77929688 397.897460938 1051.90332031 113 1047 0 c 1
 907 0 l 1
 931.154296875 113.708984375 938.047851562 319.502929688 927.803710938 417.126953125 c 0
 919.877929688 492.657226562 859.4296875 524.543945312 797 513 c 0
 715.698242188 497.966796875 661 437 661 437 c 1
 636 474 l 1
 674.055664062 524.724609375 780.8984375 608.36328125 885 613 c 0
 970.555664062 616.810546875 1043.96484375 588.276367188 1052.62890625 476.931640625 c 0
824 65 m 1
 900 61 922 99 926 147 c 1
 1052 146 l 1
 1049 56 1123 56 1142 57 c 1
 1152 0 l 1
 834 0 l 1
 824 65 l 1
662.62890625 476.931640625 m 0
 668.779296875 397.897460938 661.903320312 113 657 0 c 1
 517 0 l 1
 541.154296875 113.708984375 548.047851562 319.502929688 537.803710938 417.126953125 c 0
 529.877929688 492.657226562 473.4296875 524.543945312 411 513 c 0
 329.698242188 497.966796875 266 412 266 412 c 1
 241 449 l 1
 269.055664062 509.724609375 391.8984375 608.36328125 496 613 c 4
 581.555664062 616.810546875 653.96484375 588.276367188 662.62890625 476.931640625 c 0
41 62 m 1
 117 63 149 79 153 137 c 1
 279 150 l 1
 269.751953125 54.67578125 336.915039062 53.7607421875 363 55 c 1
 373 0 l 1
 49 0 l 1
 41 62 l 1
440 65 m 1
 516 61 532 99 536 147 c 1
 662 146 l 1
 659 56 733 56 752 57 c 1
 762 0 l 1
 450 0 l 1
 440 65 l 1
38 596 m 1
 142 592 283 608 283 608 c 1
 283 608 266 496 260 470 c 1
 260 437 283 478 283 478 c 1
 277 338 288 181 270 0 c 1
 144 0 l 1
 159 200 165 397 158 459 c 0
 153 504 127 526 45 528 c 1
 38 596 l 1
EndSplineSet
Layer: 3
Layer: 4
EndChar

StartChar: g
Encoding: 103 103 16
GlifName: g
Width: 727
VWidth: 153
Flags: HW
LayerCount: 5
Back
SplineSet
475 541 m 21
 504.642578125 543.012695312 585.03125 560.997070312 687 611 c 5
 692.575195312 574 694.013671875 516 690 486 c 5
 634.099609375 487.651367188 567.861328125 487.952148438 517 488 c 13
 475 541 l 21
351 45 m 21
 292.846679688 30.921875 172.095703125 -24.0087890625 171.66015625 -106.14453125 c 4
 171.321528492 -170.003196905 243.0234375 -205.37890625 357.799804688 -198.712890625 c 4
 426.669921875 -194.712890625 520.071289062 -145.645507812 520.071289062 -78.5380859375 c 4
 520.071289062 60.2900390625 230.845703125 60.7626953125 67 46.7880859375 c 5
 69 113 l 5
 99 148 155 198 211 240 c 5
 251 216 l 5
 220 193 191.397460938 159.08203125 161 126 c 5
 387.934570312 156.102539062 636.467773438 126.79296875 635.25390625 -35.34375 c 4
 634.18359375 -178.364257812 458.000976562 -264.379882812 305.907226562 -265.24609375 c 4
 156.54296875 -266.096679688 39.1142578125 -223.643554688 38.6875 -132.228515625 c 4
 38.015625 11.6806640625 255.303710938 65.033203125 358.662109375 80.2421875 c 4
 351 45 l 21
440.759765625 411.188476562 m 4
 440.759765625 484.5078125 403.372070312 558.1484375 302.224609375 558.1484375 c 4
 233.801757812 558.1484375 172.729492188 498.283203125 172.729492188 413.743164062 c 4
 172.729492188 321.896484375 231.07421875 271.01953125 315.58984375 271.01953125 c 4
 389.826171875 271.01953125 440.759765625 331.7578125 440.759765625 411.188476562 c 4
559.09375 453.286132812 m 4
 559.09375 301.490234375 431.084960938 213.063476562 295.465820312 213.063476562 c 4
 150.465820312 213.063476562 55.451171875 266.000976562 54.744140625 377.9921875 c 4
 53.853515625 519.149414062 189.806640625 610.5859375 331.556640625 610.5859375 c 4
 446.807617188 610.5859375 559.09375 571.178710938 559.09375 453.286132812 c 4
EndSplineSet
Fore
SplineSet
495 520 m 17
 525 522 605 551 707 611 c 1
 713 574 714 516 710 486 c 1
 654 488 588 488 537 488 c 9
 495 520 l 17
293 48 m 17
 250 38 157 -9 157 -92 c 0
 157 -141 225 -185 341 -185 c 0
 442 -185 540 -141 540 -69 c 0
 540 80 153 40 77 37 c 1
 63 58 63 96 69 119 c 1
 99 154 154 201 211 240 c 1
 261 226 l 1
 230 203 190 153 180 120 c 1
 437 140 656 121 655 -41 c 0
 654 -184 442 -253 290 -254 c 0
 111 -255 52 -203 49 -132 c 0
 47 -74 96 31 289 76 c 0
 293 48 l 17
464 426 m 0
 464 499 425 558 337 558 c 0
 269 558 189 499 189 404 c 0
 189 312 241 273 316 274 c 0
 400 275 464 347 464 426 c 0
579 453 m 0
 579 301 445 217 309 217 c 0
 164 217 76 266 75 378 c 0
 74 519 210 611 352 611 c 0
 467 611 579 571 579 453 c 0
EndSplineSet
Layer: 2
SplineSet
473 541 m 17
 502.642578125 543.012695312 575.03125 560.997070312 677 611 c 1
 682.575195312 574 684.013671875 514 680 484 c 1
 624.099609375 485.651367188 565.861328125 485.952148438 515 486 c 9
 473 541 l 17
232 9 m 17
 193.846679688 -5.078125 162.095703125 -40.0087890625 161.66015625 -82.14453125 c 0
 161 -146 213.830078125 -187.712890625 328.799804688 -187.712890625 c 0
 437.669921875 -187.712890625 520.071289062 -145.645507812 520.071289062 -78.5380859375 c 0
 520.071289062 -32.4404296875 494.779296875 6.521484375 419 6.658203125 c 0
 373.678710938 6.740234375 282.13671875 -14.6240234375 233.065429688 -14.6240234375 c 0
 91.703125 -14.6240234375 21.5859375 20.77734375 19 86.7880859375 c 0
 15.234375 182.895507812 112.053010007 236.017670002 209 245 c 1
 284 213 l 1
 233 203 125.311523438 193.75 121 135 c 0
 115.129882812 55.0029296875 359.790039062 113.04296875 442.943359375 113.04296875 c 0
 564.607421875 113.04296875 636.012695312 57.54296875 635.25390625 -36.34375 c 0
 634.098632812 -179.36328125 467.999023438 -251.0625 275.907226562 -252.24609375 c 0
 166.541992188 -252.919921875 41.341796875 -232.642578125 40.6875 -131.228515625 c 0
 40.08203125 -37.3193359375 121.303710938 29.033203125 224.662109375 44.2421875 c 0
 232 9 l 17
438.759765625 411.188476562 m 0
 438.759765625 484.5078125 403.372070312 558.1484375 302.224609375 558.1484375 c 0
 233.801757812 558.1484375 182.729492188 498.283203125 182.729492188 413.743164062 c 0
 182.729492188 321.896484375 231.07421875 271.01953125 315.58984375 271.01953125 c 0
 389.826171875 271.01953125 438.759765625 331.7578125 438.759765625 411.188476562 c 0
557.09375 453.286132812 m 0
 557.09375 301.490234375 431.084960938 213.063476562 295.465820312 213.063476562 c 0
 150.465820312 213.063476562 65.451171875 266.000976562 64.744140625 377.9921875 c 0
 63.853515625 519.149414062 189.806640625 610.5859375 331.556640625 610.5859375 c 0
 446.807617188 610.5859375 557.09375 571.178710938 557.09375 453.286132812 c 0
EndSplineSet
Layer: 3
Layer: 4
EndChar

StartChar: H
Encoding: 72 72 17
GlifName: H_
Width: 863
VWidth: 79
Flags: HW
LayerCount: 5
Back
Fore
SplineSet
521 739 m 1
 513 800 l 1
 629 790 711 794 817 800 c 1
 822 749 l 1
 804 750 744 749 740 654 c 1
 616 663 l 1
 609 711 597 743 521 739 c 1
67 739 m 1
 61 800 l 1
 174 792 253 795 361 800 c 1
 371 749 l 1
 353 750 284 749 286 654 c 1
 160 663 l 1
 153 711 143 743 67 739 c 1
194 433 m 5
 564 434 l 5
 708 441 l 5
 708 370 l 5
 194 367 l 5
 194 433 l 5
779 1 m 1
 585 0 l 1
 585 0 604 72 612 136 c 1
 624 298 621 583 611 768 c 1
 753 793 l 1
 728 593 728 208 731 145 c 0
 733 101 713 49 795 49 c 1
 779 1 l 1
498 58 m 1
 574 54 609 92 613 140 c 1
 731 139 l 1
 728 49 794 49 813 50 c 1
 823 0 l 1
 508 0 l 1
 498 58 l 1
322 1 m 1
 127 0 l 1
 127 0 146 72 154 136 c 1
 166 298 166 583 156 768 c 1
 299 793 l 1
 274 593 270 208 274 145 c 0
 277 101 256 49 338 49 c 1
 322 1 l 1
42 61 m 1
 118 57 148 89 155 137 c 1
 274 146 l 1
 272 51 348 50 366 51 c 1
 376 0 l 1
 52 0 l 1
 42 61 l 1
EndSplineSet
Layer: 2
Layer: 3
Layer: 4
EndChar

StartChar: A
Encoding: 65 65 18
GlifName: A_
Width: 863
VWidth: 79
Flags: HW
LayerCount: 5
Back
Fore
SplineSet
285 366 m 1
 608 374 l 1
 608 311 l 1
 285 308 l 1
 285 366 l 1
42 61 m 1
 123 52 145 86 164 136 c 0
 257 377 326 583 381 768 c 5
 420 774 468 786 507 799 c 5
 568 589 637 418 737 150 c 0
 754 104 775 43 843 55 c 1
 853 0 l 1
 585 0 l 1
 517 0 l 1
 507 64 l 1
 578 53 629 65 613 124 c 0
 579 249 505 396 462 541 c 4
 454 580 439 635 431 676 c 5
 371 468 279 210 264 145 c 0
 243 49 318 50 366 51 c 1
 376 0 l 1
 127 0 l 1
 52 0 l 1
 42 61 l 1
EndSplineSet
Layer: 2
Layer: 3
Layer: 4
EndChar

StartChar: B
Encoding: 66 66 19
GlifName: B_
Width: 719
VWidth: 79
Flags: HW
LayerCount: 5
Back
Fore
SplineSet
490 587 m 0
 493 677 433 745 355 747 c 0
 309 748 275 739 252 730 c 1
 244 653 247 548 246 450 c 1
 442 426 488 530 490 587 c 0
546 219 m 0
 546 306 475 383 370 386 c 0
 327 387 279 382 244 375 c 1
 243 275 243 197 253 123 c 1
 260 65 305 61 358 61 c 0
 471 62 546 119 546 219 c 0
23 61 m 1
 102 51 133 77 135 127 c 0
 144 342 147 468 139 628 c 0
 136 686 119 742 27 735 c 1
 17 798 l 1
 205 786 246 803 396 803 c 4
 531 803 612 738 613 618 c 0
 614 524 548 417 441 412 c 1
 473 437 l 1
 613 401 669 313 668 210 c 0
 666 18 521 0 320 0 c 1
 252 -1 107 0 33 0 c 1
 23 61 l 1
EndSplineSet
Layer: 2
SplineSet
488 569 m 4
 521.719726562 677.540039062 451.374023438 764.534179688 355 767 c 4
 308.621563665 768.18661456 274.367748145 758.791201339 251.676977612 750.074799016 c 5
 243.436971643 672.628485778 247.263140567 557.741402765 246.301757812 460.076171875 c 5
 347.258789062 459.206054688 455.625976562 464.791015625 488 569 c 4
546 229 m 4
 542.740919396 314.013535687 484.181015952 387.044574722 370.149414062 395.606445312 c 4
 327.62015114 398.799683322 279.23167228 391.048734076 244.326454553 385.276939723 c 5
 243.424748779 285.691300496 242.9609375 196.865234375 253.397460938 122.84765625 c 5
 259.963867188 65.1826171875 300.112122459 57.0320159845 352.999994717 60.0265624583 c 4
 472.314762808 66.782243918 549.605377724 134.953259493 546 229 c 4
23 61 m 5
 101.803710938 51.2734375 132.94921875 77.185546875 135 127.385742188 c 4
 143.765625 342 147 488 139 648 c 4
 136.110351562 705.798828125 119 762 27 755 c 5
 17 818 l 5
 205.36328125 806.268554688 246.477539062 822.853515625 396 823 c 4
 551.009765625 823.15234375 623.615234375 747.517578125 620 628 c 4
 618.0546875 563.680664062 571.813942618 476.61286309 491.620729196 441.575904484 c 5
 495.350344259 440.418440611 499.020577192 439.226456518 502.631466322 438.000016943 c 5
 614.763881474 399.914208541 669.668185198 328.601305203 668.4921875 226 c 4
 666.287423392 33.7685693105 521.204101562 -0.1728515625 320 0.029296875 c 5
 252.19921875 -1.056640625 106.894472553 -0.0066045963563 33 0 c 5
 23 61 l 5
EndSplineSet
Layer: 3
Layer: 4
EndChar

StartChar: W
Encoding: 87 87 20
GlifName: W_
Width: 1231
VWidth: 79
Flags: HW
LayerCount: 5
Back
Fore
SplineSet
674 664 m 0
 581 430 512 188 457 8 c 1
 418 2 370 -10 331 -23 c 1
 270 181 201 390 101 650 c 0
 84 696 63 748 -5 736 c 1
 -15 800 l 1
 101 796 233 793 321 800 c 1
 331 736 l 1
 260 747 209 735 225 676 c 0
 259 551 333 370 376 225 c 0
 384 192 399 135 407 100 c 1
 467 301 559 592 574 655 c 0
 674 664 l 0
1261 739 m 1
 1180 748 1158 714 1139 664 c 0
 1046 430 978 188 923 8 c 1
 884 2 836 -10 797 -23 c 1
 736 181 675 390 575 650 c 0
 558 696 537 757 469 745 c 1
 459 800 l 1
 727 800 l 1
 795 800 l 1
 805 736 l 1
 734 747 683 735 699 676 c 0
 733 551 799 370 842 225 c 0
 850 192 865 135 873 100 c 1
 933 301 1024 592 1039 655 c 0
 1060 751 985 750 937 749 c 1
 927 800 l 1
 1176 800 l 1
 1251 800 l 1
 1261 739 l 1
EndSplineSet
Layer: 2
Layer: 3
Layer: 4
EndChar

StartChar: c
Encoding: 99 99 21
GlifName: c
Width: 583
VWidth: 79
Flags: HW
LayerCount: 5
Back
SplineSet
169.010742188 329 m 4
 167.754882812 206.052734375 210.004882812 64.431640625 349.010742188 62 c 4
 414.020507812 60.8623046875 468.001953125 91 505.010742188 126 c 5
 536.010742188 92 l 5
 484.109375 28 410.001953125 -15 306.010742188 -15 c 4
 157.000976562 -15 46.09765625 69.8994140625 45.0107421875 231 c 4
 43.8369140625 404.986328125 136.03515625 598.454101562 382.001953125 598.419921875 c 4
 480.020507812 598.40625 543.001953125 569 543.001953125 569 c 5
 545.325195312 531.447265625 542.186523438 459.194335938 535.001953125 414 c 5
 455.001953125 416 l 5
 451.509765625 448.768554688 441.643554688 503.46484375 419.953125 537.573242188 c 5
 470.001953125 475.360351562 l 5
 470.001953125 475.360351562 412.151367188 533.848632812 323.001953125 532.705078125 c 4
 234.122070312 531.565429688 170.446289062 469.541015625 169.010742188 329 c 4
EndSplineSet
Fore
SplineSet
169 325 m 0
 167 202 210 64 344 62 c 0
 409 61 468 86 505 121 c 1
 536 87 l 1
 484 23 410 -15 306 -15 c 0
 157 -15 46 69 45 230 c 0
 44 404 149 598 392 598 c 0
 490 598 543 569 543 569 c 1
 545 531 545 461 538 416 c 1
 478 422 l 1
 457 465 438 504 389 538 c 5
 460 535 l 1
 438 470 416 534 324 533 c 0
 245 532 171 476 169 325 c 0
EndSplineSet
Layer: 2
Layer: 3
Layer: 4
EndChar

StartChar: w
Encoding: 119 119 22
GlifName: w
Width: 1006
VWidth: 79
Flags: HW
LayerCount: 5
Back
Fore
SplineSet
1011 538 m 1
 951 536 943 508 923 456 c 0
 854 279 783 71 746 -9 c 9
 642 -26 l 1
 608 86 553 245 483 482 c 1
 474 517 443 538 396 532 c 1
 378 596 l 1
 489 592 566 594 660 596 c 1
 670 542 l 1
 609 546 589 525 604 460 c 1
 604 460 l 1
 632 362 653 292 678 197 c 5
 689 162 704 71 702 77 c 1
 734 149 784 293 838 459 c 1
 861 517 817 536 749 533 c 1
 740 596 l 1
 837 590 906 590 1000 596 c 1
 1011 538 l 1
573 456 m 0
 504 279 399 71 362 -9 c 9
 258 -26 l 1
 219 86 178 225 98 462 c 1
 79 527 48 533 1 532 c 1
 -7 596 l 1
 113 587 189 589 295 596 c 1
 309 542 l 1
 253 546 196 538 220 460 c 1
 220 460 l 1
 248 362 275 292 300 197 c 1
 311 162 327 68 325 74 c 1
 357 146 428 293 492 459 c 0
 573 456 l 0
EndSplineSet
Layer: 2
Layer: 3
Layer: 4
EndChar

StartChar: V
Encoding: 86 86 23
GlifName: V_
Width: 779
VWidth: 79
Flags: HW
LayerCount: 5
Back
SplineSet
846.319335938 759.60546875 m 5
 750.118164062 756.4921875 737.75390625 709.79296875 708.333984375 638.686523438 c 4
 607.73828125 395.549804688 492.083007812 92.47265625 440.807617188 -17.900390625 c 13
 305.850585938 -35.2626953125 l 5
 262.05859375 118.126953125 166.208007812 445.11328125 95.28125 640.72265625 c 5
 65.8955078125 722.461914062 19.380859375 750.809570312 -44.751953125 749.60546875 c 5
 -55.7490234375 819.33984375 l 5
 100.969726562 810.166015625 230.194335938 812.083984375 366.913085938 819.33984375 c 5
 380.16015625 755.104492188 l 5
 275.680664062 746.856445312 215.693359375 731.734375 236.314453125 642.375976562 c 5
 235.938476562 642.325195312 l 5
 272.0703125 507.569335938 310.123046875 375.205078125 355.350585938 244.821289062 c 5
 369.875 196.584960938 390.53515625 66.734375 387.7734375 74.982421875 c 5
 430.33203125 173.946289062 539.463867188 422.768554688 613.000976562 650.715820312 c 5
 635.381835938 730.470703125 565.267578125 756.823242188 472.391601562 752.731445312 c 5
 460.018554688 819.33984375 l 5
 592.91015625 811.728515625 698.3046875 813.844726562 831.196289062 819.33984375 c 5
 846.319335938 759.60546875 l 5
EndSplineSet
Fore
SplineSet
789 738 m 5
 708 747 686 713 667 663 c 4
 574 429 505 188 450 8 c 1
 411 2 363 -10 324 -23 c 1
 263 187 194 401 94 669 c 0
 77 705 56 754 -12 744 c 5
 -22 799 l 5
 90 794 232 793 314 799 c 5
 324 735 l 5
 253 746 202 734 218 675 c 4
 252 556 326 384 369 245 c 0
 377 206 392 141 400 100 c 1
 460 301 552 591 567 654 c 4
 588 750 513 749 465 748 c 5
 455 799 l 5
 566 795 676 790 779 799 c 5
 789 738 l 5
EndSplineSet
Layer: 2
SplineSet
789 755 m 5
 707.577148438 763.864257812 686.395507812 730.25 667 680 c 4
 574.0078125 439.075195312 505 193 450 8 c 5
 410.666992188 1.6943359375 363.333007812 -10.0224609375 324 -23 c 5
 263.197265625 187.19140625 194 398 94.0419921875 665.946289062 c 4
 76.947265625 711.76953125 55.8515625 773.044921875 -12 761 c 5
 -22 816 l 5
 246 816 l 5
 314 816 l 5
 324 752 l 5
 252.751953125 762.5390625 201.856445312 750.874023438 217.630859375 692.135742188 c 4
 251.18359375 567.200195312 326.739257812 390.190429688 369.350585938 245 c 4
 377.33203125 206.4296875 392.17578125 140.658203125 400.1484375 100.025390625 c 5
 459.953125 308.424804688 552.32421875 605.624023438 567 671 c 4
 588.443359375 766.51953125 512.505859375 765.528320312 465 765 c 5
 455 816 l 5
 704 816 l 5
 779 816 l 5
 789 755 l 5
EndSplineSet
Layer: 3
Layer: 4
EndChar

StartChar: C
Encoding: 67 67 24
GlifName: C_
Width: 748
VWidth: 79
Flags: HW
LayerCount: 5
Back
Fore
SplineSet
190 393 m 4
 187 226 247 84 461 81 c 0
 550 80 632 118 683 166 c 1
 723 123 l 1
 652 35 551 -17 409 -17 c 0
 205 -17 58 92 57 299 c 4
 55 537 191 802 523 802 c 0
 684 802 753 766 753 766 c 1
 756 715 752 585 742 543 c 1
 683 546 l 1
 651 634 568 748 522 755 c 1
 536 776 718 732 665 637 c 1
 648 641 581 730 458 730 c 0
 300 730 193 589 190 393 c 4
EndSplineSet
Layer: 2
Layer: 3
Layer: 4
EndChar

StartChar: q
Encoding: 113 113 25
GlifName: q
Width: 682
VWidth: 79
Flags: HW
LayerCount: 5
Back
Fore
SplineSet
333 -156 m 1
 345 -157 356 -158 366 -158 c 0
 421 -158 450 -137 453 -88 c 1
 572 -69 l 1
 572 -73 572 -77 572 -80 c 0
 572 -156 611 -170 659 -170 c 0
 662 -170 665 -170 667 -170 c 1
 677 -218 l 1
 341 -218 l 1
 333 -156 l 1
575 583 m 1
 561 479 567 22 573 -102 c 0
 575 -149 518 -162 590 -161 c 1
 655 -185 l 1
 572 -183 439 -205 439 -205 c 1
 469 -37 463 386 459 443 c 0
 453 525 465 570 387 558 c 1
 374 602 l 1
 575 583 l 1
169 256 m 0
 168 119 240 70 302 71 c 0
 359 72 429 117 465 201 c 1
 499 160 l 1
 451 47 346 -8 261 -8 c 0
 116 -8 39 90 45 261 c 0
 51 433 134 615 364 617 c 0
 462 618 532 600 575 583 c 1
 503 453 l 1
 503 453 438 574 321 553 c 0
 239 538 170 439 169 256 c 0
EndSplineSet
Layer: 2
Layer: 3
Layer: 4
EndChar

StartChar: f
Encoding: 102 102 26
GlifName: f
Width: 439
VWidth: 79
Flags: HW
LayerCount: 5
Back
SplineSet
16 61 m 1
 92 57 128 78 132 136 c 1
 246 152 l 1
 244 57 336 53 364 54 c 1
 374 0 l 1
 23 0 l 1
 16 61 l 1
49 520 m 1
 39 588 l 1
 180.5078125 583.043945312 252.553710938 582.5 384 588 c 1
 397 522 l 1
 205 523.526367188 l 1
 131 439.640625 l 1
 131.806119792 506.45703125 127.041471355 529.84765625 49 520 c 1
179 126 m 1
 131 117 l 5
 134 279 134 398.844726562 124 603 c 4
 112.348303638 840.875525683 287.151353994 856.606023047 384 856 c 0
 454.639648438 855.543945312 508 829 508 829 c 1
 514.097371914 773.247646186 513.364257812 750.153320312 507 697 c 1
 422 704 l 1
 418.396484375 769.711914062 397.016111001 796.076821267 368.025390625 814 c 1
 417.333946049 853.716431559 461.855471991 786.49783642 416 760.916992188 c 1
 407.370666558 785.848473737 383.248161396 801.176248786 355 800.7265625 c 0
 275.005859375 799.453125 243.676255175 727.977754595 241 601 c 0
 237.260233192 423.562812246 235.344726562 251.282226562 251 112 c 1
 179 126 l 1
EndSplineSet
Fore
SplineSet
31 519 m 1
 21 587 l 1
 153 576 235 586 376 588 c 1
 389 521 l 1
 204 523 l 1
 130 486 l 1
 128 522 91 523 31 519 c 1
26 61 m 1
 87 57 126 73 127 118 c 1
 135 284 126 427 126 625 c 24
 126 625 l 1
 121 782 180.182413767 863.095662433 315 856 c 0
 391 852 471 812 485 805 c 5
 462 754 l 5
 356 829 263 807 249 635 c 1
 248 635 l 1
 232 414 240 169 240 169 c 2
 245 113 l 1
 252 55 320 53 344 54 c 1
 354 0 l 1
 33 0 l 1
 26 61 l 1
EndSplineSet
Layer: 2
Layer: 3
SplineSet
16 61 m 1
 92 57 131 78 135 136 c 1
 246 152 l 1
 244 57 336 53 364 54 c 1
 374 0 l 1
 23 0 l 1
 16 61 l 1
2 527 m 1
 -8 588 l 1
 384 591 l 1
 397 525 l 1
 205 526.526367188 l 1
 129 444.640625 l 1
 129.884765625 511.45703125 107.655273438 536.84765625 2 527 c 1
172 126 m 1
 134 117 l 1
 141 279 124.012695312 398.844726562 125 603 c 0
 126.151367188 841.142578125 260.129882812 856.42578125 354 856 c 0
 454.639909151 855.543511955 538 819 538 819 c 1
 539.501953125 769.6484375 534.340820312 717.354492188 527 673 c 1
 439 679 l 1
 437.137695312 706.5 431.61328125 785.322265625 423.85546875 821 c 1
 421.845703125 825.858398438 452.609375 720.547851562 450.126953125 725 c 1
 436.666015625 749.142578125 422.973632812 801.221679688 352 800.916992188 c 0
 277.938476562 800.598632812 245.172851562 738.985351562 241 601 c 0
 235.635742188 423.604492188 235.344726562 251.282226562 251 112 c 1
 172 126 l 1
EndSplineSet
Layer: 4
Colour: ff0000
EndChar

StartChar: y
Encoding: 121 121 30
GlifName: y
Width: 665
VWidth: 79
Flags: HW
LayerCount: 5
Back
Fore
SplineSet
334 52 m 13
 405 50 l 21
 379 -9 343 -106 309 -158 c 4
 256 -240 158 -267 73 -263 c 5
 35 -231 42 -163 53 -143 c 5
 246 -167 290 -43 334 52 c 13
676 538 m 1
 606 536 600 507 578 456 c 0
 502 279 427 96 390 16 c 1
 361 13 297 -4 263 -8 c 1
 224 104 183 225 103 462 c 1
 84 527 53 539 6 538 c 1
 -2 596 l 1
 112 591 206 593 320 596 c 1
 334 542 l 1
 258 536 210 525 225 460 c 1
 225 460 l 1
 253 362 278 297 309 202 c 1
 320 167 340 60 338 66 c 1
 375 138 458 353 492 459 c 1
 510 518 472 536 404 533 c 1
 395 596 l 1
 492 590 568 592 665 596 c 1
 676 538 l 1
EndSplineSet
Layer: 2
Layer: 3
Layer: 4
EndChar

StartChar: l
Encoding: 108 108 31
Width: 412
VWidth: 79
Flags: HW
LayerCount: 5
Back
Fore
SplineSet
38 61 m 5
 114 57 147 89 154 137 c 5
 272 146 l 5
 270 51 346 50 364 51 c 5
 374 0 l 5
 48 0 l 5
 38 61 l 5
320 1 m 5
 125 0 l 5
 125 0 145 72 153 136 c 4
 163 271 164 529 159 719 c 4
 154 763 124 766 46 766 c 5
 39 829 l 5
 122 827 296 850 296 850 c 5
 271 637 268 208 272 145 c 4
 275 101 254 49 336 49 c 5
 320 1 l 5
EndSplineSet
Layer: 2
Layer: 3
Layer: 4
EndChar

StartChar: u
Encoding: 117 117 34
Width: 728
VWidth: 79
Flags: HW
LayerCount: 5
Back
Fore
SplineSet
720 0 m 1
 502 0 l 1
 502 0 509 102 515 128 c 1
 515 137 517 141 514 141 c 0
 507 141 496 120 496 120 c 1
 498 161 498 203 498 247 c 0
 498 271 498 294 498 319 c 0
 498 405 499 488 509 588 c 1
 624 600 l 1
 613 456 607 312 607 220 c 0
 607 184 608 146 610 129 c 0
 615 84 639 58 711 56 c 1
 720 0 l 1
615 468 m 1
 500 455 l 1
 505 542 422 540 384 538 c 1
 376 598 l 1
 449 593 568 600 625 610 c 1
 615 468 l 1
114 117 m 0
 111 139 109 180 109 225 c 0
 109 296 113 383 116 459 c 1
 116 459 l 1
 119 530 32 534 2 532 c 1
 -4 596 l 1
 88 591 169 599 239 608 c 1
 222 521 215 401 215 295 c 0
 215 251 217 211 221 181 c 0
 230 118 275 85 334 85 c 0
 435 85 503 181 503 181 c 1
 528 144 l 1
 479 76 369 -14 262 -14 c 0
 186 -14 128 23 114 117 c 0
EndSplineSet
Layer: 2
Layer: 3
Layer: 4
EndChar

StartChar: k
Encoding: 107 107 35
Width: 752
VWidth: 79
Flags: HW
LayerCount: 5
Back
SplineSet
678 546 m 5
 648.022460938 543.735351562 618.467773438 519.403320312 587.810546875 489.861328125 c 4
 516.439453125 421.0859375 450.333007812 332.833007812 419 306.24609375 c 5
 388.032226562 298.850585938 300.302734375 314.678710938 248.661132812 314.616210938 c 5
 263.991210938 379 l 5
 295.391601562 376.96875 330.92578125 368.5703125 358 369 c 5
 378.278320312 379.099609375 441.205078125 433.505859375 483.733398438 486.791992188 c 4
 499.158203125 506.118164062 503.559570312 543.975585938 436 541 c 5
 417 594 l 5
 493.666992188 588.463867188 568.333007812 590.002929688 665 594 c 5
 678 546 l 5
263.338867188 379 m 5
 292.565429688 372.271484375 364.7265625 376.180664062 398.600585938 386.650390625 c 5
 398.600585938 386.650390625 586.124023438 57.0634765625 736 58 c 5
 748 0 l 5
 634 5.21875 556 3.095703125 442 0 c 5
 428 54 l 5
 464 50 512 71 457 136 c 5
 434.576171875 166.099609375 345.85546875 300.350585938 263.338867188 379 c 5
42 61 m 5
 118 57 150 89 157 137 c 5
 268 146 l 5
 266 51 350 50 368 51 c 5
 378 0 l 5
 52 0 l 5
 42 61 l 5
324 1 m 5
 129 0 l 5
 129 0 148 72 156 136 c 4
 165.962890625 270.504882812 168.65432478 529.093847489 163.21775642 718.883007723 c 4
 158.115035989 762.853348469 128.050736014 766.000000004 50 766 c 5
 43 829 l 5
 126 827 292 850 292 850 c 5
 267 637 264 208 268 145 c 4
 271 101 258 49 340 49 c 5
 324 1 l 5
EndSplineSet
Fore
SplineSet
648 546 m 1
 618 544 589 520 558 490 c 0
 487 421 420 333 389 306 c 1
 358 299 301 307 249 307 c 1
 264 369 l 1
 295 367 311 359 338 359 c 5
 358 369 421 434 464 497 c 0
 478 518 484 544 406 541 c 1
 387 594 l 1
 464 588 538 590 635 594 c 1
 648 546 l 1
263 369 m 1
 292 362 345 367 379 377 c 5
 379 377 556 57 706 58 c 1
 718 0 l 1
 604 5 526 3 412 0 c 1
 398 54 l 1
 434 50 482 71 437 136 c 1
 415 166 336 290 263 369 c 1
42 61 m 1
 118 57 153 89 160 137 c 1
 268 146 l 1
 266 51 330 50 348 51 c 1
 358 0 l 1
 52 0 l 1
 42 61 l 1
304 1 m 1
 129 0 l 1
 129 0 151 72 159 136 c 0
 169 271 168 529 163 719 c 0
 158 763 128 766 50 766 c 1
 43 829 l 1
 126 827 292 850 292 850 c 1
 267 637 264 208 268 145 c 0
 271 101 238 49 320 49 c 1
 304 1 l 1
EndSplineSet
Layer: 2
SplineSet
34 61 m 5
 110 57 143 89 150 137 c 5
 268 146 l 5
 266 51 342 50 360 51 c 5
 370 0 l 5
 44 0 l 5
 34 61 l 5
316 1 m 5
 121 0 l 5
 121 0 141 72 149 136 c 4
 158.962890625 270.504882812 160.654296875 529.09375 155.217773438 718.8828125 c 4
 150.115234375 762.853515625 120.05078125 766 42 766 c 5
 35 829 l 5
 118 827 292 850 292 850 c 5
 267 637 264 208 268 145 c 4
 271 101 250 49 332 49 c 5
 316 1 l 5
EndSplineSet
Layer: 3
Layer: 4
EndChar

StartChar: j
Encoding: 106 106 36
Width: 366
VWidth: 79
Flags: HW
LayerCount: 5
Back
SplineSet
99.8544921875 781.734375 m 4
 99.8544921875 823.528320312 133.403320312 852.086914062 174.846679688 852.086914062 c 4
 225.00390625 852.086914062 249.841796875 812.982421875 249.841796875 771.190429688 c 4
 249.841796875 729.396484375 216.29296875 700.8359375 174.846679688 700.8359375 c 4
 133.403320312 700.8359375 99.8544921875 739.940429688 99.8544921875 781.734375 c 4
99.8544921875 781.734375 m 4
 99.8544921875 823.528320312 133.403320312 852.086914062 174.846679688 852.086914062 c 4
 225.00390625 852.086914062 249.841796875 812.982421875 249.841796875 771.190429688 c 4
 249.841796875 729.396484375 216.29296875 700.8359375 174.846679688 700.8359375 c 4
 133.403320312 700.8359375 99.8544921875 739.940429688 99.8544921875 781.734375 c 4
-28 -79 m 5
 68 -103 147 -71 161 77 c 5
 261 72 l 5
 262.500976562 -104.223632812 196.19921875 -152.735351562 69 -154.159179688 c 4
 14.095703125 -154.7734375 -37.2060546875 -138.005859375 -51 -130 c 5
 -28 -79 l 5
31 584 m 5
 114 582 271 595 271 595 c 5
 261.327148438 539.604492188 259.629882812 147.107421875 261 60 c 5
 161 70 l 5
 176 270 157 386 150 448 c 4
 145 493 109 523 37 523 c 5
 31 584 l 5
EndSplineSet
Fore
SplineSet
100 782 m 0
 100 824 134 852 175 852 c 0
 225 852 250 813 250 771 c 0
 250 729 216 701 175 701 c 0
 134 701 100 740 100 782 c 0
100 782 m 0
 100 824 134 852 175 852 c 0
 225 852 250 813 250 771 c 0
 250 729 216 701 175 701 c 0
 134 701 100 740 100 782 c 0
-28 -189 m 1
 68 -213 140 -151 154 -3 c 1
 261 -8 l 1
 263 -184 196 -263 69 -264 c 0
 14 -265 -37 -248 -51 -240 c 1
 -28 -189 l 1
31 584 m 1
 114 582 271 595 271 595 c 1
 261 540 260 67 261 -20 c 1
 154 -10 l 1
 169 190 157 386 150 448 c 0
 145 493 109 523 37 523 c 1
 31 584 l 1
EndSplineSet
Layer: 2
Layer: 3
Layer: 4
EndChar

StartChar: comma
Encoding: 44 44 37
Width: 182
VWidth: 79
Flags: HW
LayerCount: 5
Back
Fore
SplineSet
111.299804688 57.5048828125 m 25
 121.502929688 25.04296875 159.530273438 87.1845703125 158.602539062 56.5771484375 c 0
 156.747070312 3.7099609375 90.89453125 -104.807617188 65.8525390625 -125.212890625 c 0
 38.02734375 -103.879882812 l 0
 44.51953125 -92.75 68.634765625 -40.8095703125 54.72265625 30.607421875 c 9
 111.299804688 57.5048828125 l 25
18.5498046875 46.375 m 0
 16.6953125 92.75 51.0126953125 122.4296875 89.0400390625 122.4296875 c 0
 135.415039062 122.4296875 158.602539062 95.5322265625 158.602539062 56.5771484375 c 0
 158.602539062 17.6220703125 136.342773438 -11.1298828125 99.2421875 -20.4052734375 c 1
 79.7646484375 -11.1298828125 20.4052734375 -1.85546875 18.5498046875 46.375 c 0
EndSplineSet
Layer: 2
Layer: 3
Layer: 4
EndChar

StartChar: acute
Encoding: 259 180 43
Width: 496
VWidth: 0
Flags: HW
LayerCount: 5
Back
Fore
SplineSet
73 1120 m 9
 83 1066 l 17
 191 1081 368 1158 431 1204 c 9
 371 1298 l 21
 308 1232 165 1142 73 1120 c 9
EndSplineSet
Layer: 2
Layer: 3
Layer: 4
EndChar

StartChar: x
Encoding: 120 120 50
Width: 613
VWidth: 79
Flags: HW
LayerCount: 5
Back
Fore
SplineSet
115 110 m 0
 145 152 212 263 249 326 c 1
 308 326 l 1
 344 376 386 437 410 476 c 0
 438 523 415 537 361 538 c 1
 355 598 l 1
 428 592 518 592 583 598 c 1
 591 544 l 1
 517 544 519 520 481 465 c 0
 442 408 395 333 365 294 c 1
 312 284 l 1
 272 240 241 175 209 122 c 1
 190 87 182 47 248 50 c 1
 260 -2 l 1
 21 -2 l 1
 19 54 l 1
 76 53 92 78 115 110 c 0
124 472 m 1
 93 527 69 541 22 540 c 1
 14 598 l 1
 108 590 212 591 286 597 c 1
 300 542 l 1
 224 541 215 515 240 470 c 1
 240 470 l 1
 272 405 299 381 330 336 c 1
 349 331 l 0
 400 261 494 61 594 58 c 1
 606 -2 l 1
 326 -2 l 1
 317 53 l 1
 353 49 396 69 355 136 c 0
 328 179 291 243 258 286 c 1
 244 286 l 1
 212 343 160 411 124 472 c 1
EndSplineSet
Layer: 2
Layer: 3
Layer: 4
Colour: ff0000
EndChar

StartChar: dieresis
Encoding: 260 168 51
Width: 496
VWidth: 0
Flags: HW
LayerCount: 5
Back
Fore
SplineSet
73 1140 m 13
 83 1066 l 21
 191 1081 368 1158 431 1204 c 13
 371 1298 l 21
 328 1242 165 1162 73 1140 c 13
EndSplineSet
Layer: 2
Layer: 3
Layer: 4
EndChar

StartChar: z
Encoding: 122 122 52
Width: 560
VWidth: 79
Flags: HW
LayerCount: 5
Back
Fore
SplineSet
528 546 m 5
 532 598 l 5
 458 593 217 588 62 598 c 1
 57 542 55 471 60 418 c 1
 121 424 l 1
 119 444 129 503 140 521 c 1
 188 529 319 534 375 525 c 1
 334 454 134 170 28 62 c 1
 22 0 l 5
 186 0 251 0 506 0 c 1
 519 55 520 118 518 181 c 1
 516 181 469 175 459 175 c 1
 459 125 451 78 436 78 c 1
 367 68 299 67 291 67 c 0
 181 68 193 89 233 150 c 1
 252 182 483 491 528 546 c 5
EndSplineSet
Layer: 2
Layer: 3
Layer: 4
Colour: ff0000
EndChar

StartChar: E
Encoding: 69 69 54
Width: 679
VWidth: 79
Flags: HW
LayerCount: 5
Back
Fore
SplineSet
154 137 m 1
 269 135 l 0
 270 117 275 77 311 73 c 4
 401 64 505 79 542 86 c 1
 487 29 l 1
 520 68 555 145 562 204 c 1
 634 212 l 1
 634 212 643 139 643 80 c 24
 643 56 636 0 636 0 c 1
 264 0 l 0
 49 0 l 1
 59 61 l 1
 135 57 148 89 155 137 c 1
 154 137 l 1
194 443 m 1
 394 444 l 1
 538 461 l 1
 538 370 l 1
 413 377 319 369 194 367 c 1
 194 443 l 1
322 26 m 5
 127 30 l 1
 127 30 147 72 155 136 c 0
 165 265 165 489 160 663 c 1
 160 663 l 1
 153 711 143 743 67 739 c 1
 61 800 l 1
 137 794 193 792 276 792 c 0
 362 792 451 803 648 801 c 1
 648 801 651 744 651 720 c 24
 651 661 642 588 642 588 c 1
 570 596 l 1
 563 655 538 732 495 771 c 1
 590 722 l 1
 509 730 438 733 339 733 c 0
 289 733 287 693 285 673 c 0
 263 471 267 198 269 145 c 0
 271 99 279 44 338 44 c 5
 322 26 l 5
EndSplineSet
Layer: 2
Layer: 3
Layer: 4
Colour: ff0000
EndChar

StartChar: F
Encoding: 70 70 55
Width: 691
VWidth: 79
Flags: HW
LayerCount: 5
Back
Fore
SplineSet
42 61 m 5
 125 57 147 89 155 137 c 1
 267 146 l 1
 265 51 377 50 394 51 c 1
 404 0 l 1
 52 0 l 5
 42 61 l 5
194 443 m 1
 424 444 l 1
 568 461 l 1
 568 370 l 1
 443 377 319 379 194 377 c 1
 194 443 l 1
350 1 m 1
 127 0 l 1
 127 0 146 72 154 136 c 0
 164 270 165 482 160 663 c 1
 160 663 l 1
 153 711 143 743 67 739 c 1
 61 800 l 1
 137 794 193 792 276 792 c 0
 362 792 481 803 678 801 c 1
 678 801 681 744 681 720 c 24
 681 661 672 588 672 588 c 1
 600 596 l 1
 593 655 568 732 525 771 c 1
 610 721 l 1
 353 728 l 5
 295 729 292 695 290 673 c 0
 262 454 263 202 267 145 c 0
 270 101 287 49 366 49 c 1
 350 1 l 1
EndSplineSet
Layer: 2
Layer: 3
Layer: 4
Colour: ff0000
EndChar

StartChar: P
Encoding: 80 80 56
Width: 630
VWidth: 79
Flags: HW
LayerCount: 5
Back
Fore
SplineSet
507 571 m 4
 508 684 435 744 355 746 c 4
 309 747 275 738 252 729 c 5
 244 652 247 497 246 399 c 5
 280 373 304 356 356 357 c 4
 469 358 506 464 507 571 c 4
244 304 m 5
 243 204 243 197 253 123 c 1
 260 65 305 61 358 61 c 0
 380 0 l 1
 312 -1 107 0 33 0 c 1
 23 61 l 1
 102 51 133 77 135 127 c 0
 144 342 147 467 139 627 c 4
 136 685 119 741 27 734 c 5
 17 797 l 5
 205 785 256 802 406 802 c 4
 561 802 619 717 620 607 c 4
 622 438 501 293 343 291 c 4
 292 290 244 304 244 304 c 5
EndSplineSet
Layer: 2
Layer: 3
Layer: 4
EndChar

StartChar: S
Encoding: 83 83 57
Width: 611
VWidth: 153
Flags: HW
LayerCount: 5
Back
Fore
SplineSet
292 43 m 0
 393 42 456 105 461 165 c 0
 477 338 105 323 70 532 c 0
 50 658 160 792 361 788 c 0
 481 786 561 754 561 754 c 1
 567 706 564 615 557 571 c 1
 465 582 l 1
 463 630 445 706 418 768 c 1
 488 603 l 1
 469 626 440 732 326 733 c 0
 245 734 187 670 196 601 c 0
 218 430 557 459 577 233 c 0
 590 83 469 -26 289 -27 c 0
 156 -27 58 4 58 4 c 1
 53 49 55 129 67 206 c 1
 163 195 l 1
 167 135 181 78 219 34 c 1
 160 48 143 104 132 159 c 1
 169 116 192 44 292 43 c 0
EndSplineSet
Layer: 2
Layer: 3
Layer: 4
EndChar

StartChar: U
Encoding: 85 85 58
Width: 808
VWidth: 79
Flags: HW
LayerCount: 5
Back
Fore
SplineSet
133 225 m 0
 133 349.115788363 144.108511932 555.619706886 140.496395125 639.659950229 c 1
 136.494495858 710.340790848 123.982691349 745.140384478 11 729 c 1
 8 745 4 791 2 800 c 1
 68 794 116 791 188 792 c 0
 229 792 319 793 380 801 c 1
 380 801 385 755 388 736 c 1
 287.365560642 749.812570108 261.212762919 678.944454571 256.212877286 612.152769682 c 1
 247.372759238 484.245644445 243.048828125 297.825195312 249 255 c 4
 264.91796875 140.44921875 298.878956478 65 468 65 c 4
 524 65 628 116 628 247 c 0
 628 271 628 294 628 319 c 0
 628 419.893390528 628.873046875 535.422851562 632.249023438 641.44921875 c 0
 632.084960938 641.809570312 632 642 632 642 c 1
 631 733 575 738 505 728 c 1
 502 744 498 790 496 799 c 1
 562 793 610 790 682 791 c 0
 723 791 748 792 809 800 c 1
 809 800 814 754 817 735 c 1
 766.795898438 741.890625 723.149414062 715.834960938 717.234375 662.555664062 c 0
 710.739257812 498.899414062 707.000000022 326.577847522 707 220 c 0
 707 50.458984375 550.875976562 -14 422 -14 c 0
 257.462890625 -14 133 20.3221707601 133 225 c 0
EndSplineSet
Layer: 2
Layer: 3
Layer: 4
Colour: ff0000
EndChar

StartChar: I
Encoding: 73 73 59
Width: 422
VWidth: 79
Flags: HW
LayerCount: 5
Back
Fore
SplineSet
28 729 m 5
 28 729 l 5
 25 745 21 791 19 800 c 5
 85 794 133 791 205 792 c 4
 246 792 336 793 397 801 c 5
 397 801 402 755 405 736 c 5
 354 743 286 720 282 665 c 5
 270 483 264 186 270 139 c 0
 281 69 337 62 389 69 c 1
 389 69 l 1
 400 0 l 1
 21 -1 l 1
 13 69 l 1
 86 54 143 79 148 162 c 0
 156 273 159 479 155 643 c 5
 154 734 98 739 28 729 c 5
EndSplineSet
Layer: 2
Layer: 3
Layer: 4
EndChar

StartChar: O
Encoding: 79 79 60
Width: 806
VWidth: 153
Flags: HW
LayerCount: 5
Back
Fore
SplineSet
438 803 m 4
 635 802 772 697 764 438 c 4
 757 205 642 -19 355 -14 c 4
 126 -10 30 121 28 315 c 4
 26 606 202 804 438 803 c 4
645 404 m 4
 651 599 535 750 374 726 c 4
 309 716 168 659 161 411 c 4
 155 209 255 53 416 69 c 4
 554 84 640 232 645 404 c 4
EndSplineSet
Layer: 2
Layer: 3
Layer: 4
EndChar

StartChar: T
Encoding: 84 84 81
Width: 620
VWidth: 79
Flags: HW
LayerCount: 5
Back
Fore
SplineSet
-6 600 m 5
 -6 600 l 5
 -6 737 -6 703 -5 800 c 5
 103 794 182 791 300 792 c 4
 369 792 520 793 622 801 c 5
 622 801 625 744 625 720 c 4
 625 661 616 588 616 588 c 5
 544 596 l 5
 537 655 512 732 469 771 c 5
 554 702 l 5
 465 733 385 721 300 728 c 5
 209 727 97 712 60 723 c 5
 114 760 l 5
 76 724 77 649 73 613 c 4
 -6 600 l 5
115 61 m 1
 191 57 224 89 231 137 c 1
 356 146 l 1
 354 51 430 50 448 51 c 1
 458 0 l 1
 125 0 l 1
 115 61 l 1
404 1 m 1
 202 0 l 1
 202 0 225 72 230 136 c 0
 240 266 244 516 236 699 c 0
 234 743 223 746 193 746 c 1
 186 759 l 1
 249 757 380 780 380 780 c 1
 355 588 352 202 356 145 c 0
 359 101 338 49 420 49 c 1
 404 1 l 1
EndSplineSet
Layer: 2
Layer: 3
Layer: 4
EndChar

StartChar: R
Encoding: 82 82 82
Width: 630
VWidth: 79
Flags: HW
LayerCount: 5
Back
Fore
SplineSet
507 571 m 4
 508 684 435 744 355 746 c 4
 309 747 275 738 252 729 c 5
 244 652 247 497 246 399 c 5
 280 373 304 356 356 357 c 4
 469 358 506 464 507 571 c 4
244 304 m 5
 243 204 243 197 253 123 c 1
 260 65 305 61 358 61 c 0
 380 0 l 1
 312 -1 107 0 33 0 c 1
 23 61 l 1
 102 51 133 77 135 127 c 0
 144 342 147 467 139 627 c 4
 136 685 119 741 27 734 c 5
 17 797 l 5
 205 785 256 802 406 802 c 4
 561 802 619 717 620 607 c 4
 622 438 501 293 343 291 c 4
 292 290 244 304 244 304 c 5
EndSplineSet
Layer: 2
Layer: 3
Layer: 4
EndChar

StartChar: Q
Encoding: 81 81 83
Width: 842
VWidth: 153
Flags: HW
LayerCount: 5
Back
Fore
SplineSet
405 5 m 0
 461 -96 567 -126 680 -128 c 0
 803 -130 912 -86 912 -86 c 1
 898 -204 l 1
 835 -224 768 -240 655 -239 c 0
 411 -235 363 -74 334 -4 c 1
 405 5 l 0
EndSplineSet
Refer: 60 79 N 1 0 0 1 0 0 2
Layer: 2
Layer: 3
Layer: 4
EndChar

StartChar: L
Encoding: 76 76 84
Width: 679
VWidth: 79
Flags: HW
LayerCount: 5
Back
Fore
SplineSet
154 137 m 1
 269 135 l 0
 270 117 275 77 311 73 c 0
 401 64 505 79 542 86 c 1
 487 29 l 1
 520 68 555 145 562 204 c 1
 634 212 l 1
 634 212 643 139 643 80 c 24
 643 56 636 0 636 0 c 1
 264 0 l 0
 49 0 l 1
 59 61 l 1
 135 57 148 89 155 137 c 1
 154 137 l 1
322 26 m 1
 127 30 l 1
 127 30 147 72 155 136 c 0
 165 265 165 489 160 663 c 1
 160 663 l 1
 153 711 143 743 67 739 c 1
 61 800 l 1
 137 794 193 792 276 792 c 0
 314 792 351 794 396 796 c 4
 392 732 l 4
 375 732 357 733 339 733 c 0
 289 733 287 693 285 673 c 0
 263 471 267 198 269 145 c 0
 271 99 279 44 338 44 c 1
 322 26 l 1
EndSplineSet
Layer: 2
Layer: 3
Layer: 4
EndChar

StartChar: G
Encoding: 71 71 85
Width: 748
VWidth: 79
Flags: HWO
LayerCount: 5
Back
Fore
SplineSet
384 403 m 1
 490 403 625 403 734 403 c 1
 711 285 l 1
 652 313 580 323 398 324 c 1
 384 403 l 1
649 403 m 1
 736 403 l 1
 743 341 741 247 733 183 c 1
 619 103 l 1
 659 203 649 344 649 403 c 1
190 393 m 0
 187 219 261 81 438 79 c 0
 547 77 619 134 664 186 c 5
 733 183 l 1
 660 58 549 -27 402 -27 c 0
 198 -27 58 92 57 299 c 0
 55 537 172 802 483 802 c 0
 644 802 713 766 713 766 c 1
 716 715 712 605 709 563 c 1
 643 566 l 1
 611 654 528 748 482 755 c 1
 496 776 678 732 625 637 c 1
 608 641 561 730 438 730 c 0
 288 730 193 589 190 393 c 0
EndSplineSet
Layer: 2
Layer: 3
Layer: 4
Colour: ff0000
EndChar

StartChar: D
Encoding: 68 68 86
Width: 799
VWidth: 79
Flags: HW
LayerCount: 5
Back
Fore
SplineSet
373 738 m 0
 319 739 279 729 252 719 c 1
 236 483 240 338 253 142 c 1
 260 80 305 74 358 75 c 0
 549 77 646 196 652 372 c 0
 660 596 541 734 373 738 c 0
23 61 m 1
 102 51 133 77 135 127 c 0
 144 342 147 468 139 628 c 0
 136 686 119 742 27 735 c 1
 17 798 l 1
 209 786 356 803 446 803 c 0
 614 803 768 711 766 463 c 0
 762 142 597 4 320 0 c 1
 252 -1 107 0 33 0 c 1
 23 61 l 1
EndSplineSet
Layer: 2
Layer: 3
Layer: 4
Colour: ff0000
EndChar

StartChar: J
Encoding: 74 74 87
Width: 422
VWidth: 79
Flags: HW
LayerCount: 5
Back
Fore
SplineSet
38 729 m 1
 38 729 l 1
 35 745 31 791 29 800 c 1
 95 794 133 791 205 792 c 0
 246 792 326 793 387 801 c 1
 387 801 392 755 395 736 c 1
 344 743 285 720 282 665 c 0
 271 415 272 261 278 39 c 0
 282 -94 243 -226 76 -227 c 0
 21 -227 -20 -201 -34 -193 c 1
 -7 -142 l 1
 173 -187 162 -18 166 84 c 0
 171 205 158 460 155 643 c 0
 154 734 68 739 38 729 c 1
EndSplineSet
Layer: 2
Layer: 3
Layer: 4
EndChar

StartChar: K
Encoding: 75 75 88
Width: 752
VWidth: 79
Flags: HW
LayerCount: 5
Back
Fore
SplineSet
738 766 m 1
 698 767 669 760 638 730 c 0
 567 661 430 453 399 426 c 1
 368 419 301 427 249 427 c 1
 244 489 l 1
 275 487 321 489 348 489 c 1
 368 499 495 664 538 727 c 0
 552 748 548 774 470 771 c 1
 461 834 l 1
 538 828 658 827 726 838 c 1
 738 766 l 1
273 489 m 1
 302 482 355 487 389 497 c 1
 389 497 616 57 766 58 c 1
 778 0 l 1
 664 5 596 3 482 0 c 1
 468 54 l 1
 504 50 552 71 507 136 c 1
 485 166 326 410 273 489 c 1
42 61 m 1
 118 57 153 89 160 137 c 1
 268 146 l 1
 266 51 330 50 348 51 c 1
 358 0 l 1
 52 0 l 1
 42 61 l 1
304 1 m 1
 129 0 l 1
 129 0 151 72 159 136 c 0
 169 271 168 529 163 719 c 0
 158 763 128 766 50 766 c 1
 43 829 l 1
 126 827 292 850 292 850 c 1
 267 637 264 208 268 145 c 0
 271 101 238 49 320 49 c 1
 304 1 l 1
EndSplineSet
Layer: 2
Layer: 3
Layer: 4
Colour: ff0000
EndChar

StartChar: Z
Encoding: 90 90 89
Width: 679
VWidth: 79
Flags: HW
LayerCount: 5
Back
Fore
SplineSet
163 727 m 1
 140 687 137 637 132 596 c 1
 60 588 l 1
 60 588 51 661 51 720 c 0
 51 744 54 801 54 801 c 1
 101 803 210 796 296 796 c 0
 379 796 581 794 657 800 c 1
 645 739 l 1
 556 672 196 74 177 56 c 0
 136 115 l 1
 167 85 251 76 307 73 c 0
 384 68 500 75 547 82 c 1
 567 120 574 166 578 204 c 1
 650 212 l 1
 650 212 659 139 659 80 c 0
 659 56 652 0 652 0 c 1
 260 0 l 1
 12 0 l 1
 13 14 17 46 19 71 c 1
 93 128 347 542 447 702 c 0
 458.028563528 719.645701644 463 733 413 733 c 0
 340 733 221 731 163 727 c 1
EndSplineSet
Layer: 2
Layer: 3
Layer: 4
EndChar

StartChar: Y
Encoding: 89 89 90
Width: 681
VWidth: 79
Flags: HW
LayerCount: 5
Back
Fore
SplineSet
388 395 m 0
 366 253 379 169 390 122 c 0
 401 73 427 62 479 69 c 1
 479 69 l 1
 500 0 l 1
 195 -1 l 1
 187 69 l 1
 260 54 275 93 282 145 c 0
 289 196 288 249 274 373 c 1
 388 395 l 0
696 744 m 1
 636 742 607 710 578 662 c 0
 482 505 416 412 379 332 c 1
 350 329 326 320 292 310 c 1
 238 412 196 483 89 668 c 1
 60 733 23 745 -24 744 c 1
 -32 802 l 1
 82 797 166 799 280 802 c 1
 294 748 l 1
 218 742 189 725 214 670 c 1
 214 670 l 1
 240 622 278 563 314 498 c 1
 325 463 348 409 346 415 c 1
 390 487 437 559 498 665 c 1
 526 724 472 742 404 739 c 1
 395 802 l 1
 492 796 588 798 685 802 c 1
 696 744 l 1
EndSplineSet
Layer: 2
Layer: 3
Layer: 4
Colour: ff0000
EndChar

StartChar: X
Encoding: 88 88 91
Width: 813
VWidth: 79
Flags: HW
LayerCount: 5
Back
Fore
SplineSet
154.099609375 147.400390625 m 0
 194.299804688 203.6796875 294.080078125 352.419921875 343.66015625 436.83984375 c 1
 412.719726562 436.83984375 l 1
 460.959960938 503.83984375 527.240234375 585.580078125 559.400390625 637.83984375 c 0
 596.919921875 700.8203125 556.099609375 729.580078125 483.740234375 730.919921875 c 1
 475.700195312 801.3203125 l 1
 573.51953125 793.280273438 694.120117188 793.280273438 781.219726562 801.3203125 c 1
 791.940429688 738.959960938 l 1
 692.780273438 738.959960938 695.459960938 696.799804688 644.540039062 623.099609375 c 0
 592.280273438 546.719726562 519.299804688 446.219726562 479.099609375 393.959960938 c 1
 418.080078125 380.559570312 l 1
 364.48046875 321.599609375 312.940429688 234.5 270.059570312 163.48046875 c 1
 244.599609375 116.580078125 243.879882812 52.98046875 332.3203125 57 c 1
 348.400390625 -2.6796875 l 1
 28.1396484375 -2.6796875 l 1
 25.4599609375 62.3603515625 l 1
 101.83984375 61.01953125 123.280273438 104.51953125 154.099609375 147.400390625 c 0
166.16015625 632.48046875 m 1
 124.620117188 706.1796875 92.4599609375 734.940429688 29.48046875 733.599609375 c 1
 18.759765625 801.3203125 l 1
 144.719726562 790.599609375 284.080078125 791.940429688 383.240234375 799.98046875 c 1
 402 736.280273438 l 1
 300.16015625 734.940429688 259.099609375 710.099609375 292.599609375 649.799804688 c 1
 313.001953125 618.799804688 423.411724435 452.997638783 432.200195312 440.240234375 c 1
 457.66015625 443.540039062 l 0
 526 349.740234375 661.959960938 71.740234375 795.959960938 67.7197265625 c 1
 812.040039062 -2.6796875 l 1
 436.83984375 -2.6796875 l 1
 424.780273438 61.01953125 l 1
 473.01953125 55.66015625 560.639648438 62.4599609375 505.700195312 152.240234375 c 0
 469.51953125 209.860351562 399.940429688 325.620117188 355.719726562 383.240234375 c 1
 326.959960938 383.240234375 l 1
 284.080078125 459.620117188 214.400390625 550.740234375 166.16015625 632.48046875 c 1
EndSplineSet
Layer: 2
Layer: 3
Layer: 4
Colour: ff0000
EndChar

StartChar: N
Encoding: 78 78 92
Width: 956
VWidth: 79
Flags: HW
LayerCount: 5
Back
Fore
SplineSet
28 729 m 1
 25 745 21 791 19 800 c 1
 117.950403918 791.004508735 189.108398438 789.665039062 303 794 c 5
 380.2734375 676.604492188 665.56158115 265.612204926 753.797851562 140 c 0
 759.083007812 131.962890625 692.34375 104.022460938 697.578125 96.185546875 c 1
 715.3125 176.934570312 714.024410241 517.99918012 705 643 c 0
 698.446931172 733.769252993 628 739 558 729 c 1
 555 745 551 791 549 800 c 1
 615 794 663 791 735 792 c 0
 776 792 866 793 927 801 c 1
 927 801 932 755 935 736 c 1
 884 743 816.71652625 719.9431923 812 665 c 0
 796.601184265 485.617961346 799.528320312 214.509765625 808 0 c 1
 780 -4 762.918945312 -5.2705078125 713.283203125 -15.9736328125 c 1
 711 -17 l 1
 530.962890625 255.331054688 400.642578125 446.455078125 251.697265625 650.359375 c 1
 239.899414062 467.995117188 244.050730258 185.602612982 250 139 c 0
 261 69 337 62 389 69 c 1
 400 0 l 1
 21 -1 l 1
 13 69 l 1
 86 54 143 79 148 162 c 0
 156 273 159 479 155 643 c 0
 154 734 98 739 28 729 c 1
EndSplineSet
Layer: 2
Layer: 3
Layer: 4
EndChar

StartChar: M
Encoding: 77 77 101
Width: 1103
VWidth: 79
Flags: HW
LayerCount: 5
Back
Fore
SplineSet
1088 729 m 1
 1018 739 961 734 960 643 c 0
 956 479 959 273 967 162 c 0
 972 79 1013 54 1086 69 c 1
 1098 -1 l 1
 686 0 l 1
 677 69 l 1
 729 62 815 69 826 139 c 0
 831.94921875 185.602539062 836.100585938 517.995117188 824.302734375 700.359375 c 1
 817.504882812 690.546875 867.791015625 737.763671875 861 728 c 1
 766.666015625 554.872070312 677.639648438 365.225585938 567 116 c 1
 512.202148438 150 l 1
 621.438476562 367.612304688 766.7265625 676.604492188 814 794 c 1
 927.891601562 789.665039062 978.049804688 791.004882812 1077 800 c 1
 1081 771 1084 745 1088 729 c 1
18 729 m 1
 15 745 11 791 9 800 c 1
 107.950195312 791.004882812 158.108398438 789.665039062 272 794 c 1
 313.220703125 711.430664062 432.69921875 503.733398438 508.877929688 350 c 1
 530.041992188 289.493164062 554.990234375 213.795898438 577.7265625 176 c 0
 566 116 l 1
 497.416992188 95 l 0
 459.232421875 188.77734375 269.463867188 578.5390625 221.697265625 650.359375 c 1
 221.122070312 641.46484375 250.583984375 682.33203125 250.083007812 673 c 1
 240.30859375 491.008789062 244.340905742 183.329571688 250 139 c 0
 261 69 337 62 389 69 c 1
 400 0 l 1
 21 -1 l 1
 13 69 l 1
 86 54 143 79 148 162 c 0
 156 273 159 479 155 643 c 0
 154 734 68 739 18 729 c 1
EndSplineSet
Layer: 2
Layer: 3
Layer: 4
EndChar

StartChar: grave
Encoding: 96 96 102
Width: 496
VWidth: 0
Flags: HW
LayerCount: 5
Back
Fore
SplineSet
73 1120 m 9
 83 1066 l 17
 191 1081 368 1158 431 1204 c 9
 371 1298 l 21
 308 1232 165 1142 73 1120 c 9
EndSplineSet
Layer: 2
Layer: 3
Layer: 4
EndChar

StartChar: question
Encoding: 63 63 104
Width: 542
VWidth: 153
Flags: HW
LayerCount: 5
Back
Fore
SplineSet
80 732 m 1
 192 732 l 1
 181.579101562 697 174.674804688 627 172 592 c 1
 87 580 l 1
 78.7841796875 612.357421875 75.0595703125 697.012695312 80 732 c 1
80 732 m 0
 133.188476562 764.65234375 219.916015625 800.213867188 307 800.506835938 c 0
 426.49609375 800.909179688 524.475585938 733.553710938 496 580 c 0
 461.350585938 393.155273438 298.015625 344.520507812 213 318 c 1
 208.307617188 310.365234375 260.856445312 377.529296875 260.96875 364 c 1
 261.174804688 299.221679688 275.622070312 218.759765625 280 198 c 4
 167 196 l 5
 167.602539062 232.779296875 167.443359375 340.403320312 168 364 c 1
 219.543945312 377.096679688 361.705078125 399.5390625 383 532 c 0
 399.670898438 635.69921875 356.453125 721.880859375 232 731.65625 c 0
 178.384765625 735.8671875 135.25 710.490234375 105 693 c 0
 80 732 l 0
EndSplineSet
Refer: 11 46 N 1 0 0 1 147 -10 2
Layer: 2
Layer: 3
Layer: 4
EndChar

StartChar: quotesingle
Encoding: 39 39 105
Width: 192
VWidth: 79
Flags: HW
LayerCount: 5
Back
Fore
SplineSet
114.259765625 757.25 m 29
 124.462890625 724.788085938 162.490234375 786.9296875 161.5625 756.322265625 c 4
 159.70703125 703.455078125 93.8544921875 594.9375 68.8125 574.532226562 c 4
 40.9873046875 595.865234375 l 4
 47.4794921875 606.995117188 71.5947265625 658.935546875 57.6826171875 730.352539062 c 13
 114.259765625 757.25 l 29
21.509765625 746.120117188 m 4
 19.6552734375 792.495117188 53.97265625 822.174804688 92 822.174804688 c 4
 138.375 822.174804688 161.5625 795.27734375 161.5625 756.322265625 c 4
 161.5625 717.3671875 139.302734375 688.615234375 102.202148438 679.33984375 c 5
 82.724609375 688.615234375 23.365234375 697.889648438 21.509765625 746.120117188 c 4
EndSplineSet
Layer: 2
Layer: 3
Layer: 4
EndChar

StartChar: exclam
Encoding: 33 33 149
Width: 342
VWidth: 153
Flags: HW
LayerCount: 5
Back
Fore
SplineSet
207 790.506835938 m 1
 207 790.506835938 220.663085938 759.374023438 221.206054688 697 c 0
 222.653320312 530.719726562 197.021484375 413.791992188 175 211 c 1
 102 206 l 1
 114.731445312 398.6171875 116.763671875 579.202148438 89 751.65625 c 1
 116.086914062 775.32421875 172.556640625 792.901367188 207 790.506835938 c 1
EndSplineSet
Refer: 11 46 N 1 0 0 1 67 -10 2
Layer: 2
Layer: 3
Layer: 4
EndChar
